<?xml version="1.0" standalone="no"?>
<!DOCTYPE svg PUBLIC "-//W3C//DTD SVG 20010904//EN"
 "http://www.w3.org/TR/2001/REC-SVG-20010904/DTD/svg10.dtd">
<svg version="1.0" xmlns="http://www.w3.org/2000/svg"
 width="1500.000000pt" height="975.000000pt" viewBox="0 0 1500.000000 975.000000"
 preserveAspectRatio="xMidYMid meet">

<g transform="translate(0.000000,975.000000) scale(0.100000,-0.100000)"
fill="#4b3621" stroke="none">
<path d="M6470 7890 c0 -5 4 -10 9 -10 5 0 18 -3 28 -7 16 -6 16 -5 4 10 -15
19 -41 23 -41 7z"/>
<path d="M7580 7877 c3 -3 57 -23 120 -45 63 -22 136 -50 162 -63 45 -21 47
-25 44 -56 -3 -18 -11 -39 -18 -47 -8 -7 -59 -19 -118 -26 -58 -7 -125 -16
-150 -19 l-45 -6 94 -28 c51 -15 95 -26 98 -23 2 2 -9 7 -26 11 -30 6 -59 31
-48 41 3 3 43 10 88 16 92 11 116 4 136 -38 22 -46 -10 -74 -61 -54 -39 14
-41 13 -41 -20 0 -32 9 -33 68 -4 27 12 31 11 65 -19 20 -18 55 -50 77 -72 22
-21 45 -38 50 -36 6 2 17 5 25 6 8 2 15 4 15 5 0 1 8 3 18 5 29 5 34 16 6 12
-13 -2 -41 2 -61 9 -21 7 -38 10 -39 6 -2 -16 -49 175 -49 201 0 16 -4 36 -9
45 -4 9 -11 34 -15 54 -7 37 -6 37 34 48 32 9 51 8 81 -2 39 -13 42 -18 100
-143 59 -130 74 -195 44 -195 -8 0 -15 -4 -15 -9 0 -5 16 -5 38 0 69 16 88 11
151 -40 33 -26 108 -79 166 -117 57 -38 105 -73 104 -79 0 -5 -23 -26 -52 -46
-41 -29 -70 -40 -128 -49 -69 -11 -81 -10 -149 10 -125 37 -144 51 -210 152
-33 49 -61 95 -61 102 -1 6 -5 -11 -10 -39 -15 -92 24 -215 95 -299 58 -67 77
-105 66 -125 -4 -9 -16 -46 -24 -81 -25 -97 -69 -210 -83 -210 -7 0 -10 -7 -7
-15 4 -8 1 -15 -4 -15 -6 0 -13 8 -15 18 -2 9 -4 3 -3 -15 0 -17 5 -29 10 -25
5 3 6 -3 2 -14 -4 -10 -10 -31 -13 -46 -3 -16 -10 -25 -16 -21 -5 3 -7 2 -4
-4 3 -5 0 -29 -7 -54 -12 -39 -17 -44 -45 -47 -18 -2 -40 0 -49 4 -10 4 -47 6
-84 6 -38 -1 -68 2 -68 8 0 5 -6 7 -13 4 -8 -3 -31 1 -53 8 -45 16 -80 15
-184 -7 -41 -8 -101 -18 -132 -21 l-58 -7 0 60 c0 33 -3 81 -6 106 -6 39 -4
46 12 50 15 4 14 5 -6 7 l-25 2 25 8 c23 8 24 8 3 9 -12 1 -46 15 -75 32 -29
17 -82 45 -118 61 -35 16 -76 38 -90 47 -14 10 -45 21 -70 25 -199 29 -370 74
-370 97 0 9 18 63 41 120 22 57 48 124 58 149 l17 44 105 28 104 27 -122 -2
c-68 -1 -123 1 -123 5 0 4 20 30 45 58 24 28 52 65 61 83 26 49 90 130 121
153 15 12 52 29 80 38 29 10 55 21 57 25 3 4 -12 17 -32 29 -38 21 -233 94
-239 89 -1 -2 38 -20 87 -41 50 -21 90 -44 90 -50 0 -7 -35 -48 -78 -92 -52
-53 -83 -93 -93 -120 -8 -23 -43 -77 -79 -120 -36 -43 -74 -94 -86 -113 -21
-35 -22 -36 -85 -36 -35 0 -107 4 -159 7 -85 6 -81 6 30 -8 74 -9 131 -20 139
-29 17 -17 9 -50 -21 -88 -13 -16 -34 -42 -46 -58 -13 -16 -28 -29 -32 -29 -5
0 -21 -11 -35 -26 -14 -14 -30 -22 -36 -19 -5 4 -36 4 -69 0 l-58 -7 20 -34
c33 -56 2 -85 -50 -48 -12 8 -22 13 -22 10 0 -7 -93 35 -107 49 -6 7 -9 15 -6
19 4 3 1 6 -6 6 -7 0 -9 4 -6 10 7 11 -41 37 -51 27 -3 -3 -1 -14 6 -24 10
-16 11 -16 6 0 -6 19 2 21 24 7 13 -9 13 -10 0 -10 -12 0 -13 -2 -1 -9 8 -5
10 -14 6 -21 -5 -8 -4 -11 3 -6 6 3 13 2 16 -3 3 -5 -12 -13 -34 -19 -44 -11
-59 -2 -33 19 9 8 14 9 10 3 -3 -6 0 -11 7 -11 7 0 13 6 13 13 0 6 -7 11 -16
9 -24 -4 -35 6 -20 17 11 8 10 9 -3 5 -9 -3 -22 2 -30 10 -11 15 -11 16 7 9
15 -5 17 -4 8 5 -17 17 -37 1 -22 -17 6 -8 8 -14 3 -15 -39 -4 -76 -5 -192 -7
-132 -2 -165 -13 -77 -26 25 -4 51 -13 58 -20 21 -21 174 -53 461 -96 231 -35
271 -44 310 -68 38 -23 44 -31 39 -52 -6 -26 -42 -82 -56 -88 -4 -2 -5 -8 -1
-13 3 -5 0 -9 -5 -9 -6 0 -11 -7 -11 -15 0 -8 -5 -15 -10 -15 -6 0 -9 -4 -8
-9 2 -5 -5 -16 -16 -23 -12 -10 -19 -31 -22 -68 -3 -30 -6 -55 -8 -58 -5 -4
-106 66 -121 84 -11 12 -65 8 -65 -5 0 -9 88 -71 100 -71 6 0 10 -4 10 -9 0
-5 10 -13 21 -16 17 -6 19 -9 8 -17 -10 -7 -8 -8 9 -5 12 3 22 1 22 -4 0 -5
-6 -9 -12 -10 -7 0 -4 -4 7 -9 11 -5 15 -9 8 -9 -6 -1 -19 -4 -29 -8 -12 -4
-15 -3 -10 5 4 7 2 12 -3 12 -6 0 -11 -7 -11 -15 0 -8 -4 -15 -9 -15 -5 0 -17
-3 -27 -7 -13 -5 -15 -3 -10 8 4 8 1 6 -7 -4 -9 -10 -19 -19 -24 -19 -4 0 -17
-4 -28 -8 -11 -4 -36 -11 -55 -15 -33 -7 -34 -7 -20 11 11 15 11 17 0 7 -16
-15 -30 -17 -30 -5 0 5 10 13 22 19 15 6 18 12 10 17 -7 4 -12 2 -12 -3 0 -6
-5 -11 -11 -11 -5 0 -7 4 -4 10 3 6 -1 7 -10 4 -18 -7 -16 -34 5 -51 13 -11
13 -12 0 -13 -11 0 -8 -6 8 -20 15 -12 22 -28 20 -42 -2 -19 -9 -23 -40 -23
-30 0 -44 -7 -65 -32 -16 -17 -54 -46 -85 -63 -51 -28 -57 -29 -60 -13 -3 11
9 33 27 53 18 19 44 56 59 81 26 45 26 47 6 52 -18 5 -20 13 -20 100 0 81 -3
96 -17 103 -22 9 -29 11 -47 13 -8 0 -22 8 -30 17 -9 8 -16 12 -16 7 0 -4 -7
1 -15 11 -8 11 -15 17 -15 13 0 -4 -18 5 -40 19 -22 15 -40 31 -40 36 0 5 -5
6 -10 3 -6 -3 -13 1 -16 9 -3 9 -10 13 -15 10 -5 -3 -9 0 -9 5 0 6 -7 11 -15
11 -8 0 -22 11 -30 24 -9 13 -30 30 -48 37 -18 7 -40 19 -49 27 -12 10 -28 12
-51 8 -26 -5 -43 0 -81 25 -53 33 -213 95 -223 85 -3 -3 -14 6 -25 19 -11 14
-24 25 -29 25 -5 0 -26 7 -47 17 -20 9 -40 17 -44 18 -5 2 -10 4 -13 5 -3 1
-8 3 -12 5 -5 1 -17 5 -28 9 -11 4 -32 12 -46 18 -15 5 -36 18 -47 29 -21 19
-21 19 -17 -11 2 -17 2 -30 0 -30 -25 0 -444 53 -485 61 -66 14 -162 60 -209
102 -45 39 -91 57 -138 55 l-38 -1 35 -4 c21 -3 56 -21 86 -44 29 -22 75 -51
103 -64 28 -14 51 -29 51 -34 0 -5 -15 -16 -32 -25 -39 -19 -26 -20 59 -5 52
9 84 8 166 -5 56 -8 161 -22 232 -31 72 -8 146 -17 165 -20 19 -2 36 -9 38
-15 2 -5 8 -8 13 -4 5 3 9 0 9 -7 0 -7 3 -10 6 -6 4 3 38 -10 75 -29 48 -25
77 -34 94 -30 16 4 28 1 37 -12 18 -25 73 -62 91 -62 18 0 30 -30 21 -53 -3
-10 3 -28 15 -43 15 -19 18 -30 10 -35 -27 -16 4 -34 112 -65 62 -19 123 -34
135 -34 32 0 131 -37 164 -60 33 -23 40 -64 14 -74 -9 -3 -65 -6 -124 -6 -60
0 -111 -4 -115 -9 -3 -6 -14 -8 -25 -6 -11 2 -17 -1 -15 -8 3 -7 -7 -20 -21
-31 -22 -16 -29 -17 -50 -6 -17 10 -23 20 -20 36 4 18 1 21 -11 17 -11 -4 -14
-2 -9 5 4 7 3 12 -3 12 -6 0 -8 6 -5 13 5 15 -23 44 -33 33 -3 -3 -1 -6 5 -6
7 0 12 -5 12 -11 0 -5 -4 -7 -10 -4 -5 3 -10 1 -10 -5 0 -7 6 -10 13 -7 8 3
14 0 14 -6 0 -7 -11 -13 -23 -13 -18 -2 -22 3 -22 25 1 15 -4 37 -11 49 -10
18 -9 25 4 38 19 20 20 19 -10 22 -14 1 -37 -5 -50 -14 -13 -9 -27 -15 -30
-14 -4 1 -9 -1 -12 -4 -13 -13 29 -5 52 10 13 9 30 14 37 11 8 -4 5 -8 -9 -12
-22 -7 -22 -7 -2 -28 10 -11 19 -27 19 -34 0 -7 0 -16 0 -20 0 -5 -6 -8 -12
-8 -7 0 -12 9 -10 20 3 25 -33 52 -42 30 -3 -9 0 -12 8 -9 15 6 32 -13 21 -24
-3 -3 -10 0 -15 8 -6 8 -10 12 -10 7 0 -4 -11 0 -25 9 -14 9 -22 21 -18 27 4
6 0 8 -10 4 -9 -3 -19 -2 -22 3 -4 6 2 10 12 11 10 0 13 3 6 6 -21 8 -15 50
10 73 12 12 34 24 50 27 36 7 45 23 22 39 -12 9 -55 13 -140 13 -113 0 -122
-2 -118 -18 3 -12 -8 -28 -34 -47 -76 -59 -120 -84 -144 -84 -14 0 -58 -11
-97 -24 -40 -14 -110 -32 -157 -41 -93 -17 -146 -33 -110 -34 11 0 52 4 90 9
39 5 74 5 78 0 14 -12 -12 -122 -26 -113 -8 4 -8 2 1 -9 7 -8 10 -22 6 -31 -3
-9 10 -39 34 -74 21 -32 42 -73 45 -90 6 -30 4 -33 -18 -33 -13 0 -26 4 -30
10 -3 5 -13 6 -22 3 -11 -4 -14 -3 -9 5 5 8 1 10 -10 5 -11 -4 -15 -3 -11 4 9
15 -3 44 -14 37 -5 -3 -9 -10 -9 -15 0 -6 5 -7 10 -4 17 11 11 -7 -7 -21 -17
-13 -17 -14 0 -8 10 4 17 1 17 -6 0 -8 9 -11 25 -8 14 3 25 1 25 -3 0 -14 -31
-11 -83 8 -26 9 -46 22 -44 28 5 15 32 12 29 -3 -1 -8 2 -11 8 -7 8 5 7 11 -1
21 -10 12 -9 17 1 27 10 10 11 9 5 -2 -6 -10 -4 -12 4 -7 9 6 9 11 1 21 -12
15 -44 9 -34 -6 3 -5 -1 -6 -9 -3 -9 3 -22 -4 -31 -17 -13 -20 -19 -21 -41
-11 -15 7 -25 8 -25 2 0 -6 -11 -10 -24 -10 -39 0 -58 -10 -46 -25 6 -7 7 -20
4 -29 -5 -14 -15 -16 -55 -11 -40 5 -54 2 -77 -14 -15 -11 -63 -28 -106 -39
l-77 -20 -9 24 c-5 13 -13 24 -17 25 -42 5 -61 4 -57 -3 3 -4 -7 -8 -23 -9
l-28 -1 25 -7 25 -7 -24 -7 c-30 -8 -59 11 -39 25 8 5 1 6 -16 2 -25 -6 -28
-4 -23 10 4 10 3 15 -3 11 -6 -4 -10 9 -10 29 0 20 -7 44 -16 53 -35 40 -84
113 -84 126 0 23 34 47 66 47 34 0 61 5 364 61 226 42 246 47 238 54 -2 3 -50
-4 -107 -15 -117 -23 -141 -24 -141 -9 0 7 -10 28 -22 48 -23 37 -24 39 -34
107 -6 36 -3 43 21 62 31 25 27 25 -70 7 -42 -8 -57 -13 -39 -14 28 -1 32 -5
37 -38 4 -20 5 -38 4 -39 -7 -7 -87 52 -83 61 2 6 -2 44 -8 85 l-12 75 -8 -60
c-4 -33 -9 -70 -12 -83 -3 -15 1 -25 13 -29 58 -22 193 -153 193 -188 0 -11
-53 -22 -275 -61 -90 -16 -229 -11 -336 11 -36 8 -190 28 -340 45 -151 17
-488 58 -750 91 -262 32 -481 59 -487 59 -8 0 -12 18 -11 48 1 47 1 48 92 128
225 200 272 234 339 248 50 10 57 14 38 19 -14 4 -35 7 -47 7 -13 0 -23 6 -23
13 0 6 -21 24 -48 39 -26 15 -62 37 -79 49 -18 11 -33 19 -33 16 0 -2 17 -16
38 -30 43 -28 74 -82 65 -113 -6 -20 -83 -89 -237 -212 -50 -40 -120 -99 -156
-131 -73 -65 -112 -81 -284 -117 l-111 -22 66 -1 c36 -1 115 8 175 19 137 25
208 25 370 1 71 -11 192 -27 269 -36 97 -12 158 -25 199 -42 51 -21 83 -26
220 -33 289 -15 479 -31 576 -47 52 -9 123 -19 158 -23 35 -4 65 -9 67 -12 8
-8 -56 -123 -75 -134 -18 -10 -16 -14 30 -59 36 -36 50 -44 50 -32 0 10 4 16
9 13 11 -7 8 21 -4 31 -4 4 -5 2 -1 -4 4 -7 2 -13 -3 -13 -16 0 -13 19 5 37
12 13 15 13 13 2 -1 -8 1 -22 6 -32 4 -10 2 -23 -5 -33 -11 -12 -11 -17 0 -27
9 -9 11 -9 6 0 -3 6 -2 14 3 17 5 3 9 -15 9 -42 1 -38 -3 -51 -20 -61 -18 -11
-20 -11 -15 3 4 10 1 13 -9 9 -7 -3 -14 0 -14 7 0 6 -5 8 -11 5 -6 -5 -4 -12
8 -21 17 -13 17 -14 0 -25 -27 -16 -12 -27 47 -34 74 -10 84 -17 62 -49 -15
-24 -15 -26 0 -26 9 0 42 6 73 14 31 8 144 33 251 55 107 22 274 56 370 76
131 28 187 35 225 30 28 -3 55 -9 61 -13 9 -6 153 -207 282 -394 47 -70 54
-114 22 -143 -11 -10 -34 -43 -51 -74 -18 -31 -49 -80 -70 -110 -22 -30 -39
-62 -39 -72 0 -10 20 -41 45 -69 76 -85 77 -88 65 -166 -5 -38 -10 -109 -10
-157 0 -156 -19 -275 -53 -344 l-31 -61 -91 -21 c-113 -26 -526 -143 -521
-148 1 -2 112 22 246 53 240 56 244 56 274 39 91 -52 114 -119 121 -351 3
-125 9 -175 24 -220 11 -33 22 -68 24 -79 3 -13 5 -10 6 10 0 17 -6 43 -15 60
-9 17 -16 58 -17 100 -3 150 4 374 13 405 5 17 16 82 25 143 9 62 24 157 35
212 20 110 33 315 19 315 -5 0 -9 15 -9 33 0 25 3 29 11 17 9 -12 10 -12 5 4
-4 10 -1 26 6 34 11 13 11 14 -1 8 -9 -6 -12 -5 -9 5 7 21 -18 86 -52 132 -40
54 -39 90 5 163 19 32 35 62 35 66 0 5 10 12 23 17 24 9 179 -18 216 -39 11
-5 29 -10 41 -10 19 0 21 -4 15 -27 -3 -16 -14 -37 -23 -47 -9 -11 -11 -16 -4
-12 7 4 12 4 11 -1 -1 -4 -1 -30 0 -58 l1 -50 42 65 c22 36 47 80 55 99 20 47
34 56 217 149 317 159 349 172 443 182 77 8 92 7 164 -16 117 -37 354 -127
440 -168 l76 -35 5 -48 c3 -26 2 -118 -2 -203 -6 -136 -11 -165 -38 -241 l-31
-87 47 -33 c26 -18 74 -58 107 -89 77 -73 248 -217 357 -301 101 -79 140 -127
143 -175 2 -24 12 -46 34 -68 39 -40 39 -59 0 -172 -27 -80 -51 -234 -36 -234
10 0 28 38 32 68 4 32 28 133 60 257 13 50 34 133 46 185 52 223 66 247 224
380 71 60 87 68 135 75 30 4 63 11 72 16 24 13 55 -4 224 -122 221 -154 424
-268 664 -372 167 -73 179 -75 221 -55 20 10 41 29 48 45 6 15 29 41 51 57 22
16 37 33 34 37 -2 4 4 14 14 21 11 7 19 15 19 18 -2 10 38 70 46 70 4 0 5 5 2
10 -3 6 -2 10 3 10 9 0 19 21 27 60 2 8 9 16 15 18 5 2 8 8 4 13 -3 5 0 9 7 9
7 0 9 3 6 6 -6 6 4 20 53 80 5 7 7 14 5 16 -6 5 60 73 124 128 46 40 54 53 66
105 8 32 15 91 16 131 2 90 22 135 80 190 24 22 66 66 92 97 32 38 56 57 70
57 20 0 345 -95 412 -120 15 -6 30 -9 32 -6 5 4 -293 104 -374 126 -24 6 -43
17 -43 24 0 7 21 33 48 57 26 25 72 73 102 107 30 35 76 74 102 87 57 30 105
31 345 10 92 -8 200 -17 238 -19 145 -8 666 -56 810 -76 83 -11 164 -20 181
-20 17 0 59 -11 93 -26 35 -14 66 -23 69 -20 3 3 11 1 19 -5 7 -6 13 -8 13 -4
0 4 6 3 13 -2 6 -6 30 -16 52 -22 22 -7 47 -15 55 -18 8 -3 24 -8 35 -9 63
-11 115 -27 115 -36 0 -5 3 -7 8 -5 4 3 20 -5 35 -18 29 -22 29 -22 17 -81
-39 -189 -181 -460 -318 -605 l-57 -61 -59 26 c-78 35 -82 28 -6 -9 33 -16 60
-32 60 -35 0 -9 93 -76 101 -73 3 1 30 -21 60 -50 30 -29 58 -51 62 -49 5 1 6
-2 3 -7 -3 -5 31 -37 76 -72 45 -35 100 -80 122 -100 77 -67 133 -109 138
-103 3 3 21 -10 39 -28 55 -54 110 -91 120 -81 10 10 -73 86 -126 114 -16 9
-28 19 -25 22 6 7 -92 85 -174 139 -55 36 -176 142 -176 155 0 3 -8 12 -17 20
-12 9 -13 12 -3 8 8 -4 2 5 -13 19 -15 14 -25 26 -22 26 3 0 -3 10 -15 22 -11
12 -20 28 -20 35 0 7 -4 13 -9 13 -5 0 -11 11 -15 23 -4 19 4 35 40 73 42 46
60 79 179 329 19 39 48 87 66 108 l32 37 31 -23 c32 -24 196 -128 196 -124 0
2 -45 41 -101 87 l-101 85 6 65 c3 36 6 77 6 93 0 25 3 27 43 27 94 0 503 -52
792 -101 333 -55 892 -173 1334 -280 112 -27 206 -47 208 -45 5 5 -532 137
-812 200 -564 127 -1025 205 -1474 252 -85 8 -163 20 -174 26 -10 5 -31 12
-45 14 -41 8 -156 78 -160 97 -5 26 106 126 158 142 41 12 118 54 127 67 4 7
44 30 88 51 94 45 238 128 232 133 -2 2 -24 -3 -48 -12 -43 -16 -45 -16 -123
14 -98 38 -112 36 -19 -3 38 -15 72 -31 76 -35 5 -4 -33 -28 -85 -53 -329
-159 -388 -183 -418 -167 -10 6 -28 10 -40 10 -11 0 -56 18 -100 40 -92 46
-124 53 -59 12 24 -16 59 -45 77 -66 35 -40 37 -67 6 -113 -14 -23 -21 -25
-62 -19 -188 24 -655 64 -997 86 -275 17 -406 29 -525 45 -186 27 -194 30
-279 109 -42 40 -93 82 -113 95 -44 26 -42 21 -23 84 l14 47 -103 0 c-62 0
-122 -6 -152 -15 -60 -18 -91 -19 -97 -2 -4 9 -6 9 -6 -1 -1 -10 -6 -10 -22
-1 -15 8 -19 8 -15 0 4 -6 2 -11 -3 -11 -6 0 -11 4 -11 10 0 5 -12 3 -27 -5
-29 -14 -148 -37 -195 -38 -16 0 -25 -4 -21 -10 4 -6 0 -8 -10 -4 -9 3 -17 2
-19 -3 -2 -6 -25 -11 -53 -12 -46 -3 -50 -1 -49 20 1 12 -3 22 -8 22 -6 0 -7
11 -4 24 3 13 2 26 -4 28 -5 2 -11 24 -12 50 -2 27 -8 48 -14 48 -18 0 -170
133 -185 163 -8 14 -5 27 15 57 22 34 48 50 173 111 198 95 481 221 683 305
91 37 166 69 168 70 9 6 -52 83 -69 87 -24 6 -25 24 -1 30 9 3 3 5 -15 4 -29
-1 -33 -5 -39 -41 -13 -82 -30 -104 -103 -140 -37 -19 -110 -51 -162 -72 -52
-20 -137 -57 -189 -81 -52 -24 -112 -48 -132 -52 l-38 -9 0 97 0 97 -32 14
c-18 7 -36 15 -40 18 -5 2 -8 -31 -8 -74 0 -42 -2 -75 -5 -72 -3 2 -6 37 -6
76 -1 53 -4 69 -14 66 -7 -3 -16 -1 -19 4 -8 14 -216 16 -216 2 0 -5 -15 -10
-32 -11 -30 -1 -31 -2 -8 -8 24 -7 24 -7 -8 -20 -18 -8 -31 -16 -28 -18 2 -2
32 -11 67 -19 34 -8 68 -19 74 -24 6 -5 20 -1 35 11 l25 19 -28 -10 c-39 -14
-44 -13 -21 5 10 8 14 15 7 15 -6 0 -15 -4 -18 -10 -3 -5 -13 -10 -21 -10 -8
0 -13 4 -9 9 3 5 0 13 -6 17 -8 4 -9 3 -5 -4 5 -8 -1 -12 -16 -12 -22 0 -21 2
11 32 28 27 44 33 92 36 32 2 66 1 76 -3 21 -9 29 -12 43 -14 6 0 10 -5 10 -9
0 -5 -15 -7 -32 -6 l-33 3 30 -7 c28 -7 30 -11 33 -56 3 -40 1 -48 -12 -43 -8
3 -18 2 -21 -4 -4 -5 -3 -9 2 -8 21 4 33 -2 33 -16 0 -8 5 -15 10 -15 12 0 2
-52 -12 -61 -5 -3 -61 -6 -125 -7 l-115 0 -36 -34 c-19 -18 -32 -27 -28 -21 5
9 2 11 -8 7 -9 -3 -13 -11 -10 -16 4 -6 1 -8 -7 -6 -8 3 -13 10 -12 16 2 6 -3
9 -11 6 -18 -7 -32 16 -16 26 8 5 8 9 -4 13 -8 3 -18 1 -22 -5 -5 -7 -2 -8 6
-3 9 5 11 4 6 -3 -13 -21 -48 10 -41 36 4 15 2 21 -5 17 -5 -3 -10 -13 -10
-21 0 -12 -4 -12 -20 -2 -21 14 -20 18 7 22 10 2 18 9 18 16 0 7 7 15 15 17
13 4 13 3 0 -6 -11 -8 -11 -11 -2 -11 7 0 15 7 18 15 4 8 10 15 16 15 5 0 7
-4 3 -9 -3 -5 -1 -12 4 -15 5 -3 7 -15 4 -25 -3 -10 0 -22 5 -25 6 -3 9 2 7
11 -1 10 2 24 8 31 6 8 6 12 -2 12 -7 0 -10 4 -6 10 3 5 12 7 20 4 8 -4 12
-10 9 -15 -3 -5 3 -6 12 -2 12 4 15 3 10 -5 -4 -7 -2 -12 3 -12 24 0 8 26 -24
41 -19 9 -32 12 -28 6 3 -5 0 -7 -8 -5 -8 3 -13 11 -11 17 1 7 -2 10 -7 7 -5
-4 -12 -2 -16 4 -6 10 -36 -10 -30 -20 2 -3 -3 -11 -11 -18 -11 -10 -16 -9
-26 8 -7 11 -19 20 -27 20 -11 0 -9 4 4 14 18 13 21 12 30 -10 10 -24 10 -24
22 -5 11 17 10 19 -4 14 -11 -4 -14 -3 -9 5 4 7 2 12 -4 12 -6 0 -8 6 -4 13 4
6 -2 4 -13 -5 -28 -25 -40 -22 -17 4 12 14 13 18 3 10 -16 -12 -29 -7 -29 10
0 5 5 6 12 2 6 -4 8 -3 5 3 -4 6 -18 8 -32 6 -13 -3 -22 -9 -19 -14 3 -5 10
-7 15 -4 5 3 6 -1 3 -9 -4 -9 1 -18 10 -22 9 -3 14 -10 11 -14 -3 -4 6 -15 20
-24 14 -9 25 -20 25 -25 0 -14 -33 -23 -40 -10 -4 6 -11 11 -16 12 -5 0 -23 9
-40 19 -33 19 -38 55 -8 55 19 0 18 -7 -3 -24 -16 -13 -16 -13 5 -3 23 11 31
40 10 40 -21 0 -20 68 0 73 12 3 10 5 -5 6 -14 1 -25 9 -29 24 -3 12 -25 37
-50 55 -24 18 -44 37 -44 42 0 5 13 24 28 42 16 18 43 54 60 79 17 26 38 49
47 52 8 4 15 13 15 22 0 26 48 89 77 101 43 18 165 62 197 71 l29 9 -64 46
c-35 25 -77 59 -92 76 l-28 29 28 8 28 7 -24 9 c-19 8 -27 6 -33 -6 -5 -8 -18
-15 -29 -15 -26 0 -90 42 -85 56 3 7 -15 19 -39 28 -24 9 -72 44 -108 77 -67
61 -75 76 -152 270 l-22 56 86 18 c149 32 69 28 -140 -6 -175 -28 -205 -31
-232 -20 -74 31 -289 91 -277 78z m678 -802 c26 -13 62 -38 80 -55 29 -27 32
-35 26 -65 -3 -19 -10 -35 -14 -35 -16 0 -115 53 -137 73 -28 25 -33 107 -6
107 2 0 25 -11 51 -25z m-2218 -206 c0 -6 -4 -7 -10 -4 -5 3 -10 11 -10 16 0
6 5 7 10 4 6 -3 10 -11 10 -16z m880 -170 c0 -5 4 -8 9 -5 5 4 11 3 13 -1 1
-5 31 -21 66 -37 34 -16 62 -34 62 -38 0 -5 4 -7 9 -3 5 3 16 -2 25 -10 8 -9
17 -15 18 -14 2 1 42 -18 90 -42 79 -39 86 -45 86 -71 l-1 -28 -121 0 -121 0
-50 -38 c-47 -35 -52 -37 -93 -28 -23 5 -41 14 -39 20 2 6 -5 19 -15 30 -14
15 -15 23 -6 35 10 13 10 14 -2 4 -20 -18 -35 -16 -20 2 11 13 10 14 -4 9 -9
-3 -16 -13 -16 -21 0 -8 -5 -11 -12 -7 -6 4 -8 3 -5 -4 4 -5 16 -8 26 -5 13 3
23 -2 31 -17 14 -26 9 -33 -14 -24 -10 4 -15 13 -12 21 4 8 1 11 -5 7 -14 -8
-61 36 -55 53 3 7 -1 10 -10 6 -7 -3 -14 1 -14 8 0 7 -3 9 -7 6 -3 -4 -17 3
-30 15 -24 22 -32 45 -11 32 8 -5 9 -2 4 11 -5 15 -4 16 8 6 8 -7 13 -21 11
-31 -5 -24 6 -32 25 -20 10 6 22 2 37 -12 21 -20 24 -20 47 -4 28 18 40 21 31
7 -3 -5 0 -13 6 -17 8 -4 9 -3 5 4 -4 7 -2 12 4 12 7 0 6 5 -2 14 -7 8 -17 11
-23 8 -5 -4 -21 -5 -34 -3 -14 2 -21 -1 -17 -8 4 -5 14 -8 24 -5 15 5 15 4 -1
-6 -24 -15 -53 5 -37 26 9 10 6 11 -12 8 -13 -2 -17 -2 -11 2 9 4 10 11 3 24
-7 13 -6 20 3 23 7 4 8 6 1 6 -6 1 -17 -6 -24 -14 -16 -19 -26 -19 -34 1 -5
12 -2 15 11 10 14 -6 15 -4 6 5 -7 7 -9 19 -3 34 5 13 7 25 5 27 -3 2 13 5 35
6 22 2 59 12 82 22 48 22 78 25 78 9z m1565 -119 c3 -5 1 -10 -4 -10 -6 0 -11
5 -11 10 0 6 2 10 4 10 3 0 8 -4 11 -10z m-1739 -25 c0 -14 -4 -25 -8 -25 -10
0 -11 34 -1 43 9 10 9 10 9 -18z m-3943 -266 c23 -6 11 -8 -43 -5 -42 1 -85 8
-95 15 -16 9 -8 10 43 5 34 -4 77 -10 95 -15z m2600 -24 c8 -8 18 -11 22 -7 5
4 5 1 1 -5 -5 -10 -13 -9 -32 3 -13 9 -24 18 -24 20 0 9 20 3 33 -11z m-343
-27 c8 -4 87 -18 175 -33 95 -15 175 -34 197 -45 20 -11 47 -20 60 -20 69 -1
148 -47 148 -87 0 -11 -13 -13 -72 -8 -40 3 -131 7 -203 10 -115 3 -173 8
-240 20 -11 2 -36 7 -55 10 -19 4 -54 7 -78 9 -23 1 -47 7 -53 13 -9 9 -18 8
-36 -4 l-24 -16 3 74 c3 67 5 74 26 79 31 7 133 6 152 -2z m-1374 -105 c-4
-16 -8 -35 -10 -43 -3 -8 -5 -22 -5 -30 -1 -8 -11 -21 -22 -29 -18 -11 -23
-11 -30 1 -11 16 -6 29 29 84 31 50 47 56 38 17z m4642 -41 c63 -64 79 -96 85
-174 8 -93 -3 -101 -53 -37 l-33 40 -29 -28 c-17 -15 -57 -63 -91 -106 -54
-70 -62 -76 -69 -58 -12 33 42 179 106 285 32 53 60 96 62 96 2 0 12 -8 22
-18z m-2471 -132 c43 -33 97 -75 121 -93 l43 -32 -6 -70 c-5 -73 -24 -139 -51
-180 -19 -28 -302 -185 -335 -185 -5 0 -32 -12 -60 -26 -53 -26 -235 -84 -266
-84 -10 0 -43 15 -74 34 -39 25 -60 46 -72 75 -10 22 -55 76 -103 123 -54 52
-96 104 -114 139 -16 30 -44 76 -63 101 -48 62 -54 131 -15 169 25 25 32 26
215 37 103 7 220 12 258 13 39 0 102 8 140 19 48 12 107 19 187 19 l116 1 79
-60z m598 -5 c28 -8 104 -23 170 -34 66 -11 166 -36 223 -56 56 -19 110 -35
119 -35 9 0 64 -15 122 -34 86 -28 200 -63 369 -112 6 -2 12 -8 12 -14 0 -8
-34 -9 -112 -5 -62 4 -120 8 -128 10 -8 3 -44 7 -80 11 -113 11 -135 15 -183
30 -26 8 -52 13 -127 20 -30 4 -58 11 -62 18 -4 6 -8 7 -8 2 0 -5 -7 -3 -15 4
-8 7 -15 10 -15 7 0 -9 -124 45 -132 58 -4 5 -8 7 -8 2 0 -4 -13 -1 -30 8 -16
8 -31 15 -32 14 -2 0 -21 6 -43 14 -22 8 -49 18 -60 23 -11 4 -28 9 -38 10
-10 2 -30 12 -44 21 -15 10 -30 18 -33 17 -13 -2 -40 9 -40 17 0 5 -5 8 -11 7
-6 -2 -14 3 -17 11 -4 11 9 12 74 7 44 -4 102 -13 129 -21z m-2415 -57 c0 -4
-9 -8 -21 -8 -11 0 -18 4 -15 8 3 5 12 9 21 9 8 0 15 -4 15 -9z m4790 8 c0 -2
3 -11 6 -19 3 -10 -2 -17 -13 -20 -14 -4 -13 -5 6 -6 17 -1 21 -5 17 -17 -4
-9 -2 -13 5 -8 7 4 10 2 8 -5 -3 -7 -9 -12 -14 -12 -6 0 -21 -7 -34 -16 -22
-14 -24 -14 -17 2 6 16 4 16 -11 4 -31 -26 -53 -49 -52 -56 3 -20 -2 -24 -17
-13 -8 8 -14 9 -13 4 3 -20 -2 -28 -10 -16 -6 10 -13 11 -27 4 -11 -6 -66 -16
-124 -22 -58 -6 -116 -14 -128 -17 -19 -4 -23 -2 -20 12 2 11 47 42 113 78
122 66 185 93 260 112 60 15 65 16 65 11z m-4900 -37 c0 -5 -4 -9 -10 -9 -5 0
-10 7 -10 16 0 8 5 12 10 9 6 -3 10 -10 10 -16z m3747 0 c43 -10 57 -20 78
-51 40 -60 33 -69 -38 -44 -48 17 -54 12 -109 -97 -45 -91 -55 -89 -59 8 -3
76 36 207 60 201 9 -2 40 -10 68 -17z m1870 -33 c120 -23 124 -24 200 -82 43
-32 104 -85 136 -118 87 -92 90 -86 -121 -300 -98 -100 -194 -200 -215 -223
-20 -24 -39 -43 -42 -43 -20 0 -158 128 -316 292 -154 160 -195 209 -238 284
-28 50 -51 93 -51 97 0 4 18 7 39 7 58 0 229 35 361 74 63 19 117 35 120 35 3
1 60 -10 127 -23z m-722 -53 c-11 -8 -19 -17 -18 -21 1 -4 -16 -27 -38 -52
-31 -36 -41 -42 -48 -30 -5 8 -7 18 -5 22 3 4 0 8 -6 8 -6 0 -8 5 -4 12 5 8
11 6 20 -7 7 -10 11 -22 7 -28 -3 -6 -1 -7 6 -3 6 4 9 11 6 16 -3 5 7 18 22
31 16 12 20 19 11 16 -10 -4 -18 -2 -18 4 0 6 -5 7 -12 3 -7 -5 -8 -3 -4 5 5
7 14 10 21 7 7 -2 26 6 40 20 15 14 30 22 34 19 3 -4 -3 -13 -14 -22z m-35 3
c0 -3 -4 -8 -10 -11 -5 -3 -10 -1 -10 4 0 6 5 11 10 11 6 0 10 -2 10 -4z m-30
-50 c0 -3 -4 -8 -10 -11 -5 -3 -10 -1 -10 4 0 6 5 11 10 11 6 0 10 -2 10 -4z
m-2208 -41 c101 -19 206 -39 233 -45 28 -5 77 -11 110 -14 58 -4 148 -36 160
-56 14 -23 -39 -81 -124 -134 -48 -31 -95 -64 -105 -75 -10 -10 -30 -25 -46
-31 -26 -11 -39 -8 -107 20 -43 18 -89 38 -103 46 -98 52 -268 124 -294 124
-54 0 -150 29 -168 51 -10 12 -18 38 -18 59 0 35 3 39 35 50 38 12 174 37 217
39 14 0 109 -15 210 -34z m2144 -2 c-3 -8 -2 -12 3 -9 10 6 25 -22 22 -40 -1
-12 65 -24 133 -24 40 0 48 -7 253 -203 206 -196 295 -290 346 -365 23 -33 24
-42 17 -87 -5 -27 -9 -72 -9 -98 -1 -27 -8 -65 -18 -84 -18 -38 -105 -138
-133 -153 -13 -7 -56 4 -156 40 -76 27 -139 48 -140 47 -2 -1 57 -29 131 -62
113 -50 132 -61 122 -74 -7 -8 -10 -16 -8 -18 1 -3 -5 -15 -16 -26 -10 -12
-25 -38 -32 -57 -8 -19 -25 -49 -38 -67 -12 -17 -23 -39 -23 -47 0 -9 -5 -16
-11 -16 -5 0 -8 -4 -5 -8 3 -5 -9 -23 -26 -40 -16 -18 -27 -32 -22 -32 4 0 -3
-11 -16 -25 -13 -14 -27 -25 -31 -25 -3 0 -28 -20 -55 -44 -26 -25 -52 -42
-56 -40 -5 3 -7 0 -6 -8 2 -7 -4 -12 -12 -10 -26 6 -501 257 -608 322 -56 34
-139 89 -184 122 -101 75 -178 117 -298 163 -52 20 -112 49 -135 64 -22 15
-73 47 -113 71 -69 40 -72 44 -68 74 3 17 8 56 11 86 l6 55 77 19 c42 10 104
28 137 39 33 11 85 25 115 32 124 29 212 54 226 66 9 7 40 12 76 11 56 -2 66
-6 142 -59 44 -31 142 -103 217 -159 148 -112 286 -207 334 -230 27 -14 26
-11 -10 20 -22 20 -99 78 -170 130 -132 95 -291 245 -332 314 -12 20 -25 57
-29 82 -3 25 -15 80 -26 124 -10 43 -17 84 -14 91 2 7 27 15 56 19 28 4 81 17
118 30 100 36 175 50 226 43 50 -7 53 -6 31 16 -7 8 -17 28 -21 43 -7 27 -6
28 10 15 9 -8 15 -20 12 -28z m-629 -39 c25 -19 33 -32 33 -58 0 -23 9 -41 30
-61 27 -26 30 -35 30 -89 0 -34 -3 -78 -7 -100 l-6 -38 -101 5 c-56 3 -114 8
-130 11 -16 4 -56 13 -90 21 -34 8 -82 15 -107 15 -25 0 -66 7 -92 16 -30 10
-71 15 -117 12 -66 -3 -70 -2 -70 18 0 12 8 31 18 42 33 39 147 128 172 136
14 4 83 11 153 16 126 9 128 9 170 44 50 42 69 44 114 10z m-649 -46 c-2 -16
-10 -22 -32 -23 -16 0 -31 -6 -34 -13 -5 -15 -42 -16 -42 -2 0 23 50 60 80 60
27 0 31 -3 28 -22z m-63 -134 c33 -58 42 -85 61 -200 l23 -134 -40 -86 c-22
-48 -63 -143 -91 -213 -49 -123 -179 -433 -184 -439 -1 -2 -44 28 -95 68 -51
39 -109 80 -129 90 -19 10 -65 49 -102 87 -78 81 -93 120 -78 203 52 305 70
390 88 427 28 53 101 118 227 198 l100 63 90 1 91 1 39 -66z m-1019 20 c18
-14 18 -15 -6 -8 -31 8 -50 24 -29 24 8 0 24 -7 35 -16z m1232 -755 l133 -62
-110 -111 c-69 -70 -112 -122 -117 -141 -4 -17 -36 -67 -71 -113 -34 -46 -63
-88 -63 -94 0 -6 -11 1 -25 16 -13 14 -29 26 -35 26 -14 0 -110 97 -110 111 0
34 130 325 187 418 21 33 51 26 211 -50z m-2698 -498 c0 -5 -5 -22 -10 -37
l-11 -27 -24 23 c-31 29 -31 37 -2 43 39 8 47 7 47 -2z"/>
<path d="M6726 6622 c-3 -4 4 -9 15 -9 23 -2 25 3 4 10 -8 4 -16 3 -19 -1z"/>
<path d="M6775 6581 c-6 -11 13 -26 22 -17 4 3 1 6 -6 6 -7 0 -9 5 -6 10 3 6
4 10 1 10 -3 0 -7 -4 -11 -9z"/>
<path d="M6963 6454 c0 -8 4 -14 9 -14 4 0 8 5 8 10 0 6 4 10 9 10 5 0 7 -9 4
-20 -3 -11 -9 -18 -13 -15 -5 3 -11 1 -15 -4 -8 -13 33 -5 51 10 18 15 5 31
-29 34 -15 2 -24 -2 -24 -11z"/>
<path d="M8779 5833 c-12 -16 -12 -17 2 -6 12 10 18 10 29 0 12 -10 12 -9 1 6
-7 9 -15 17 -16 17 -1 0 -9 -8 -16 -17z"/>
<path d="M8970 4730 c8 -5 20 -10 25 -10 6 0 3 5 -5 10 -8 5 -19 10 -25 10 -5
0 -3 -5 5 -10z"/>
<path d="M8333 7853 c9 -2 23 -2 30 0 6 3 -1 5 -18 5 -16 0 -22 -2 -12 -5z"/>
<path d="M4884 7773 c41 -22 96 -44 96 -39 0 5 -109 56 -119 56 -3 -1 7 -8 23
-17z"/>
<path d="M10856 7719 c-3 -34 -6 -96 -6 -138 0 -58 -5 -84 -20 -108 -23 -39
-92 -75 -192 -103 -97 -26 -431 -72 -538 -74 -84 -1 -87 0 -230 62 -191 84
-198 85 -55 10 72 -38 120 -69 120 -78 0 -14 -76 -24 -570 -75 -27 -3 -75 -8
-105 -11 -30 -3 -61 -6 -67 -7 -7 0 4 -15 25 -33 23 -20 41 -29 47 -23 5 5 21
9 37 9 29 0 48 -23 48 -60 0 -20 -1 -20 -32 -4 l-33 17 25 -24 c29 -28 74 -28
66 0 -12 39 -24 105 -21 111 2 4 26 8 52 9 76 2 625 50 773 67 74 8 234 35
356 60 122 24 240 44 263 44 24 0 75 -11 115 -25 41 -13 120 -36 177 -50 57
-15 129 -37 159 -50 49 -22 236 -53 247 -41 5 5 -113 26 -148 26 -13 0 -44 10
-69 21 -25 12 -92 39 -149 60 -58 22 -126 53 -151 69 l-47 30 -17 103 c-9 56
-19 139 -22 185 -8 101 -28 112 -38 21z"/>
<path d="M9265 7740 c16 -57 80 -159 102 -163 22 -4 22 -4 -3 27 -15 17 -44
60 -66 96 -22 36 -36 54 -33 40z"/>
<path d="M7503 7603 c9 -2 23 -2 30 0 6 3 -1 5 -18 5 -16 0 -22 -2 -12 -5z"/>
<path d="M7368 7593 c6 -2 18 -2 25 0 6 3 1 5 -13 5 -14 0 -19 -2 -12 -5z"/>
<path d="M5306 7450 c43 -46 124 -169 124 -187 0 -6 -7 -17 -16 -24 -22 -18
-206 -260 -201 -265 3 -4 116 133 180 220 21 28 48 55 60 59 12 5 63 6 112 4
67 -4 77 -3 40 3 -27 5 -69 9 -92 9 -39 1 -45 5 -106 79 -36 42 -82 93 -104
112 l-38 35 41 -45z"/>
<path d="M8185 7430 c-3 -5 -1 -10 4 -10 6 0 11 5 11 10 0 6 -2 10 -4 10 -3 0
-8 -4 -11 -10z"/>
<path d="M8525 7360 c11 -5 27 -9 35 -9 9 0 8 4 -5 9 -11 5 -27 9 -35 9 -9 0
-8 -4 5 -9z"/>
<path d="M8650 7350 c-8 -5 -10 -10 -5 -10 6 0 17 5 25 10 8 5 11 10 5 10 -5
0 -17 -5 -25 -10z"/>
<path d="M3406 7331 c-11 -4 -15 -10 -10 -13 5 -4 18 0 29 8 20 15 12 17 -19
5z"/>
<path d="M3466 7249 c17 -19 203 -119 221 -119 13 0 -28 25 -136 84 -65 35
-97 48 -85 35z"/>
<path d="M5688 7243 c6 -2 18 -2 25 0 6 3 1 5 -13 5 -14 0 -19 -2 -12 -5z"/>
<path d="M11585 7176 c44 -12 125 -38 180 -58 55 -20 107 -38 114 -40 20 -6
-51 -54 -159 -108 -47 -23 -98 -53 -115 -65 -55 -41 -176 -96 -258 -117 -76
-19 -103 -20 -357 -15 -214 4 -242 3 -125 -4 83 -4 195 -8 249 -9 l99 -1 206
-93 c113 -52 316 -144 450 -205 134 -61 246 -110 248 -108 2 2 -43 26 -99 52
-57 27 -121 59 -143 73 -22 14 -97 54 -167 89 -71 35 -128 68 -128 73 0 4 -22
32 -48 62 -45 49 -78 97 -70 102 2 1 21 13 43 28 85 55 165 96 300 155 174 75
169 74 290 83 l100 7 -145 2 c-147 2 -184 9 -293 55 -45 20 -215 66 -237 65
-8 0 21 -11 65 -23z m-151 -431 c18 -9 50 -34 72 -57 l39 -41 -60 33 c-33 18
-76 43 -95 56 -31 22 -32 24 -11 24 12 0 38 -7 55 -15z"/>
<path d="M6268 7163 c7 -3 16 -2 19 1 4 3 -2 6 -13 5 -11 0 -14 -3 -6 -6z"/>
<path d="M12688 7113 c6 -2 18 -2 25 0 6 3 1 5 -13 5 -14 0 -19 -2 -12 -5z"/>
<path d="M3768 7103 c7 -3 16 -2 19 1 4 3 -2 6 -13 5 -11 0 -14 -3 -6 -6z"/>
<path d="M12583 7103 c9 -2 23 -2 30 0 6 3 -1 5 -18 5 -16 0 -22 -2 -12 -5z"/>
<path d="M3858 7083 c7 -3 16 -2 19 1 4 3 -2 6 -13 5 -11 0 -14 -3 -6 -6z"/>
<path d="M12273 7083 c20 -2 54 -2 75 0 20 2 3 4 -38 4 -41 0 -58 -2 -37 -4z"/>
<path d="M5946 7054 c-12 -17 -15 -29 -8 -36 6 -6 17 0 30 20 19 26 20 43 3
42 -3 0 -14 -12 -25 -26z m14 -15 c-7 -11 -14 -18 -17 -15 -3 3 0 12 7 21 18
21 23 19 10 -6z"/>
<path d="M3988 7063 c6 -2 18 -2 25 0 6 3 1 5 -13 5 -14 0 -19 -2 -12 -5z"/>
<path d="M4063 7053 c9 -2 23 -2 30 0 6 3 -1 5 -18 5 -16 0 -22 -2 -12 -5z"/>
<path d="M5982 7029 c-16 -25 -6 -45 14 -28 9 8 14 8 14 1 0 -6 -8 -16 -17
-21 -15 -8 -15 -11 -3 -12 8 -1 21 -1 28 0 6 1 12 -3 12 -9 0 -5 -8 -10 -17
-11 -13 0 -14 -2 -4 -6 8 -3 20 2 27 12 7 9 18 14 26 10 7 -3 4 1 -6 9 -11 9
-16 16 -12 16 5 0 3 6 -3 14 -12 15 -28 16 -48 3 -7 -5 -13 -4 -13 2 0 5 7 14
16 19 9 5 12 12 7 15 -5 3 -15 -3 -21 -14z m54 -42 c1 -7 -6 -13 -16 -13 -14
0 -15 4 -7 18 12 18 20 16 23 -5z"/>
<path d="M6045 6940 c-3 -6 1 -7 9 -4 18 7 21 14 7 14 -6 0 -13 -4 -16 -10z"/>
<path d="M9880 6856 l-65 -23 57 -12 c38 -8 68 -9 91 -3 18 5 58 8 88 6 30 -2
47 0 39 3 -8 3 -17 9 -20 13 -4 6 -113 41 -122 39 -1 0 -32 -11 -68 -23z"/>
<path d="M4288 6853 c7 -3 16 -2 19 1 4 3 -2 6 -13 5 -11 0 -14 -3 -6 -6z"/>
<path d="M4238 6843 c7 -3 16 -2 19 1 4 3 -2 6 -13 5 -11 0 -14 -3 -6 -6z"/>
<path d="M2588 6833 c7 -3 16 -2 19 1 4 3 -2 6 -13 5 -11 0 -14 -3 -6 -6z"/>
<path d="M2658 6833 c23 -2 61 -2 85 0 23 2 4 4 -43 4 -47 0 -66 -2 -42 -4z"/>
<path d="M4188 6833 c7 -3 16 -2 19 1 4 3 -2 6 -13 5 -11 0 -14 -3 -6 -6z"/>
<path d="M10158 6813 c6 -2 18 -2 25 0 6 3 1 5 -13 5 -14 0 -19 -2 -12 -5z"/>
<path d="M4005 6797 l-40 -12 11 -75 10 -75 8 76 8 77 42 10 c22 5 32 10 21
10 -11 0 -38 -5 -60 -11z"/>
<path d="M3888 6793 c12 -2 30 -2 40 0 9 3 -1 5 -23 4 -22 0 -30 -2 -17 -4z"/>
<path d="M10511 6777 c16 -12 129 -278 129 -303 0 -7 -10 -22 -22 -34 -17 -16
-35 -20 -85 -20 l-63 0 -1 33 c-1 17 -1 38 0 45 1 8 -7 4 -18 -7 -23 -23 -29
-40 -8 -23 9 8 13 7 14 -6 10 -101 10 -102 -6 -102 -14 0 -14 -2 -1 -10 11 -7
9 -11 -13 -19 -39 -15 -47 -14 -40 7 3 9 3 14 -1 10 -4 -3 -9 -12 -10 -20 -1
-7 -7 -22 -13 -34 -7 -11 -15 -44 -19 -72 -6 -47 -11 -55 -56 -89 l-49 -38 96
-7 c53 -4 230 -30 394 -57 321 -55 395 -78 613 -187 98 -49 205 -98 196 -89
-3 3 -69 43 -148 89 -130 76 -144 87 -156 122 -8 22 -14 40 -14 41 0 7 142 43
229 58 89 15 115 16 180 5 89 -14 285 -61 386 -91 110 -34 102 -32 85 -21 -55
35 -938 312 -995 312 -12 0 -26 5 -33 12 -7 7 -12 9 -12 5 0 -7 -172 51 -245
84 -56 25 -50 23 -88 34 -21 5 -34 19 -47 49 -121 275 -129 298 -119 317 9 17
6 19 -33 19 -36 -1 -40 -3 -27 -13z m539 -544 c0 -17 -29 -102 -42 -122 -17
-28 -24 -27 -31 8 -5 25 -10 29 -29 25 -46 -9 -244 -13 -308 -6 -61 7 -65 8
-68 35 -3 25 -1 27 32 27 19 0 45 4 58 9 13 4 77 12 143 15 66 4 121 9 123 10
6 7 122 6 122 -1z"/>
<path d="M8418 6713 c7 -3 16 -2 19 1 4 3 -2 6 -13 5 -11 0 -14 -3 -6 -6z"/>
<path d="M8470 6690 c-11 -21 -13 -40 -2 -24 4 6 15 15 26 21 16 9 16 11 2 16
-10 4 -20 -1 -26 -13z"/>
<path d="M8552 6701 c-11 -7 -10 -10 3 -15 22 -8 27 -8 21 2 -2 4 25 9 62 10
36 2 68 5 71 7 8 9 -144 5 -157 -4z"/>
<path d="M8420 6689 c0 -5 5 -7 10 -4 6 3 10 8 10 11 0 2 -4 4 -10 4 -5 0 -10
-5 -10 -11z"/>
<path d="M8728 6693 c7 -3 16 -2 19 1 4 3 -2 6 -13 5 -11 0 -14 -3 -6 -6z"/>
<path d="M8508 6673 c6 -2 18 -2 25 0 6 3 1 5 -13 5 -14 0 -19 -2 -12 -5z"/>
<path d="M8898 6668 c9 -9 15 -9 24 0 9 9 7 12 -12 12 -19 0 -21 -3 -12 -12z"/>
<path d="M8580 6660 c8 -5 20 -10 25 -10 6 0 3 5 -5 10 -8 5 -19 10 -25 10 -5
0 -3 -5 5 -10z"/>
<path d="M8648 6653 c6 -2 18 -2 25 0 6 3 1 5 -13 5 -14 0 -19 -2 -12 -5z"/>
<path d="M8818 6653 c7 -3 16 -2 19 1 4 3 -2 6 -13 5 -11 0 -14 -3 -6 -6z"/>
<path d="M10467 6634 c-3 -3 -3 -12 0 -20 4 -10 0 -12 -12 -8 -14 6 -13 1 6
-19 12 -15 27 -27 32 -27 4 0 2 6 -6 14 -8 8 -13 26 -12 40 3 27 2 30 -8 20z"/>
<path d="M10495 6629 c-4 -6 -5 -12 -2 -15 2 -3 7 2 10 11 7 17 1 20 -8 4z"/>
<path d="M7970 6600 c25 -4 56 -4 70 0 15 4 -2 7 -45 7 -63 0 -65 -1 -25 -7z"/>
<path d="M7439 6584 c19 -8 42 -13 50 -11 10 3 6 5 -7 6 -13 0 -20 6 -17 11 4
6 -7 10 -27 10 l-33 -1 34 -15z"/>
<path d="M7785 6590 c-3 -5 -21 -11 -38 -11 -26 -2 -28 -3 -7 -6 14 -2 43 3
65 11 35 13 37 15 13 15 -15 1 -30 -3 -33 -9z"/>
<path d="M7880 6590 c8 -5 28 -10 44 -10 39 0 30 6 -19 13 -27 4 -35 3 -25 -3z"/>
<path d="M7583 6579 c23 -5 52 -5 70 0 27 8 21 9 -38 9 -63 0 -66 -1 -32 -9z"/>
<path d="M8860 6586 c0 -2 7 -7 16 -10 8 -3 12 -2 9 4 -6 10 -25 14 -25 6z"/>
<path d="M10445 6568 c2 -10 0 -18 -3 -18 -4 0 -7 -11 -7 -25 0 -14 3 -25 8
-25 4 0 7 4 7 9 0 5 9 13 20 16 11 3 20 11 20 17 0 6 -6 6 -15 -2 -9 -7 -19
-10 -22 -6 -4 4 -1 11 7 16 9 6 10 10 3 10 -6 0 -13 6 -16 13 -2 6 -3 4 -2 -5z"/>
<path d="M4618 6573 c7 -3 16 -2 19 1 4 3 -2 6 -13 5 -11 0 -14 -3 -6 -6z"/>
<path d="M7838 6573 c7 -3 16 -2 19 1 4 3 -2 6 -13 5 -11 0 -14 -3 -6 -6z"/>
<path d="M7978 6573 c7 -3 16 -2 19 1 4 3 -2 6 -13 5 -11 0 -14 -3 -6 -6z"/>
<path d="M4543 6563 c9 -2 23 -2 30 0 6 3 -1 5 -18 5 -16 0 -22 -2 -12 -5z"/>
<path d="M4768 6563 c12 -2 32 -2 45 0 12 2 2 4 -23 4 -25 0 -35 -2 -22 -4z"/>
<path d="M4473 6553 c9 -2 25 -2 35 0 9 3 1 5 -18 5 -19 0 -27 -2 -17 -5z"/>
<path d="M4918 6553 c18 -2 45 -2 60 0 15 2 0 4 -33 4 -33 0 -45 -2 -27 -4z"/>
<path d="M4413 6543 c9 -2 23 -2 30 0 6 3 -1 5 -18 5 -16 0 -22 -2 -12 -5z"/>
<path d="M8440 6539 c-13 -9 -12 -10 2 -5 11 3 19 -2 23 -15 4 -10 11 -16 17
-13 6 4 14 0 19 -7 7 -11 9 -11 9 -1 0 7 -8 16 -17 19 -10 4 -22 13 -28 20 -7
9 -14 10 -25 2z"/>
<path d="M4343 6533 c9 -2 23 -2 30 0 6 3 -1 5 -18 5 -16 0 -22 -2 -12 -5z"/>
<path d="M7384 6493 c-1 -27 2 -39 7 -31 11 16 11 49 1 65 -4 6 -7 -9 -8 -34z"/>
<path d="M4283 6523 c9 -2 23 -2 30 0 6 3 -1 5 -18 5 -16 0 -22 -2 -12 -5z"/>
<path d="M7422 6505 c0 -16 2 -22 5 -12 2 9 2 23 0 30 -3 6 -5 -1 -5 -18z"/>
<path d="M4223 6513 c9 -2 23 -2 30 0 6 3 -1 5 -18 5 -16 0 -22 -2 -12 -5z"/>
<path d="M10411 6484 c0 -11 3 -14 6 -6 3 7 2 16 -1 19 -3 4 -6 -2 -5 -13z"/>
<path d="M8595 6480 c-3 -5 -3 -10 2 -10 4 0 1 -5 -7 -10 -13 -8 -13 -11 -1
-22 10 -10 12 -10 7 0 -4 6 -3 12 3 12 5 0 9 9 8 20 -1 23 -3 24 -12 10z"/>
<path d="M8715 6480 c3 -5 8 -10 11 -10 2 0 4 5 4 10 0 6 -5 10 -11 10 -5 0
-7 -4 -4 -10z"/>
<path d="M8010 6470 c-9 -6 -10 -10 -3 -10 6 0 15 5 18 10 8 12 4 12 -15 0z"/>
<path d="M8041 6464 c0 -11 3 -14 6 -6 3 7 2 16 -1 19 -3 4 -6 -2 -5 -13z"/>
<path d="M7613 6463 c9 -2 25 -2 35 0 9 3 1 5 -18 5 -19 0 -27 -2 -17 -5z"/>
<path d="M7688 6453 c6 -2 18 -2 25 0 6 3 1 5 -13 5 -14 0 -19 -2 -12 -5z"/>
<path d="M8730 6445 c0 -8 2 -15 4 -15 2 0 6 7 10 15 3 8 1 15 -4 15 -6 0 -10
-7 -10 -15z"/>
<path d="M10407 6445 c-4 -9 -3 -14 2 -10 5 3 19 -7 30 -21 12 -15 21 -22 21
-16 0 6 -5 14 -11 17 -6 4 -8 14 -5 22 4 8 2 11 -5 7 -6 -4 -15 -1 -19 6 -5 8
-9 7 -13 -5z"/>
<path d="M7613 6443 c9 -2 25 -2 35 0 9 3 1 5 -18 5 -19 0 -27 -2 -17 -5z"/>
<path d="M7695 6430 c28 -12 37 -12 30 0 -3 6 -16 10 -28 9 -21 0 -21 -1 -2
-9z"/>
<path d="M8020 6436 c0 -2 7 -6 15 -10 8 -3 15 -1 15 4 0 6 -7 10 -15 10 -8 0
-15 -2 -15 -4z"/>
<path d="M6387 6417 c-8 -6 -6 -7 6 -3 9 3 17 1 17 -4 0 -5 6 -7 14 -4 8 3 24
1 35 -6 14 -7 21 -7 21 0 0 5 -8 10 -17 10 -13 0 -15 2 -5 8 8 5 -2 8 -24 8
-19 -1 -41 -5 -47 -9z"/>
<path d="M7431 6414 c0 -11 3 -14 6 -6 3 7 2 16 -1 19 -3 4 -6 -2 -5 -13z"/>
<path d="M7608 6423 c6 -2 18 -2 25 0 6 3 1 5 -13 5 -14 0 -19 -2 -12 -5z"/>
<path d="M7392 6400 c0 -14 2 -19 5 -12 2 6 2 18 0 25 -3 6 -5 1 -5 -13z"/>
<path d="M10390 6415 c0 -2 7 -8 15 -15 12 -10 15 -10 15 2 0 8 -7 15 -15 15
-8 0 -15 -1 -15 -2z"/>
<path d="M7528 6403 c7 -3 16 -2 19 1 4 3 -2 6 -13 5 -11 0 -14 -3 -6 -6z"/>
<path d="M8026 6397 c3 -10 9 -15 12 -12 3 3 0 11 -7 18 -10 9 -11 8 -5 -6z"/>
<path d="M5375 6390 c3 -5 11 -10 16 -10 6 0 7 5 4 10 -3 6 -11 10 -16 10 -6
0 -7 -4 -4 -10z"/>
<path d="M6210 6390 c0 -6 -10 -15 -23 -21 -13 -6 -28 -19 -35 -29 -10 -16 -8
-18 14 -15 25 2 47 15 26 15 -7 0 -12 5 -12 10 0 6 6 10 13 10 7 0 18 9 25 20
7 12 8 20 2 20 -5 0 -10 -5 -10 -10z"/>
<path d="M7440 6390 c-18 -12 -2 -12 25 0 13 6 15 9 5 9 -8 0 -22 -4 -30 -9z"/>
<path d="M6150 6380 c-23 -7 -23 -8 -3 -9 12 -1 25 4 28 9 3 6 5 10 3 9 -2 -1
-14 -5 -28 -9z"/>
<path d="M5350 6369 c0 -5 5 -7 10 -4 6 3 10 8 10 11 0 2 -4 4 -10 4 -5 0 -10
-5 -10 -11z"/>
<path d="M10410 6360 c0 -11 4 -20 10 -20 5 0 7 6 4 14 -3 8 2 16 13 19 14 4
14 5 -4 6 -17 1 -23 -5 -23 -19z"/>
<path d="M5402 6365 c3 -4 17 -7 30 -9 13 -1 30 -6 38 -11 12 -6 13 -5 3 5 -7
7 -27 15 -44 17 -18 2 -30 1 -27 -2z"/>
<path d="M6098 6363 c7 -3 16 -2 19 1 4 3 -2 6 -13 5 -11 0 -14 -3 -6 -6z"/>
<path d="M5400 6346 c0 -2 7 -7 16 -10 8 -3 12 -2 9 4 -6 10 -25 14 -25 6z"/>
<path d="M5436 6321 c-13 -14 -14 -21 -5 -27 7 -4 10 -3 6 3 -8 13 17 36 28
25 5 -4 5 -1 1 6 -9 16 -10 15 -30 -7z"/>
<path d="M5496 6332 c-3 -5 1 -9 9 -9 8 0 12 4 9 9 -3 4 -7 8 -9 8 -2 0 -6 -4
-9 -8z"/>
<path d="M5529 6318 c-5 -18 -6 -39 -2 -34 4 3 12 1 19 -5 13 -10 32 6 20 18
-3 4 -6 1 -6 -6 0 -9 -4 -9 -14 1 -8 7 -12 16 -9 21 2 4 2 7 -1 7 -3 0 -6 -1
-7 -2z"/>
<path d="M6071 6284 c0 -11 3 -14 6 -6 3 7 2 16 -1 19 -3 4 -6 -2 -5 -13z"/>
<path d="M4422 6211 c-7 -16 -14 -52 -14 -80 -1 -27 -5 -48 -9 -45 -4 2 -10 0
-14 -6 -4 -6 -11 -8 -16 -4 -6 3 -2 12 8 19 10 7 15 16 12 19 -3 4 -17 -5 -32
-19 -17 -18 -26 -22 -29 -13 -3 7 2 19 11 26 14 11 13 12 -6 2 -15 -7 -20 -16
-16 -27 4 -11 3 -14 -5 -9 -8 5 -10 2 -6 -9 4 -9 9 -14 11 -11 7 7 32 -18 26
-26 -2 -4 3 -5 12 -2 10 4 15 14 12 25 -3 11 -1 17 4 13 5 -3 9 -12 9 -20 0
-8 5 -14 11 -14 5 0 7 -5 3 -12 -4 -7 -3 -8 5 -4 6 4 8 13 4 19 -13 21 -12 37
4 37 9 0 13 -6 10 -13 -7 -18 12 -47 20 -29 2 6 10 9 15 6 7 -4 8 -2 4 4 -4 6
0 26 9 43 10 18 14 41 11 55 -4 13 -7 27 -8 31 -1 5 -7 19 -14 32 -7 14 -11
28 -8 33 3 4 2 8 -3 8 -4 0 -14 -13 -21 -29z m-65 -152 c2 -16 -1 -19 -9 -11
-5 5 -7 15 -4 21 10 15 12 14 13 -10z"/>
<path d="M4637 6229 c7 -7 15 -10 18 -7 3 3 -2 9 -12 12 -14 6 -15 5 -6 -5z"/>
<path d="M5470 6226 c7 -7 13 -7 20 0 6 6 3 10 -10 10 -13 0 -16 -4 -10 -10z"/>
<path d="M6088 6224 c15 -12 15 -13 -7 -9 -13 2 -21 1 -17 -2 13 -14 38 -11
55 6 17 17 16 18 -15 18 -29 0 -31 -2 -16 -13z"/>
<path d="M6252 6220 c0 -14 2 -19 5 -12 2 6 2 18 0 25 -3 6 -5 1 -5 -13z"/>
<path d="M6295 6218 l-20 -21 22 12 c23 12 40 31 26 30 -4 0 -17 -10 -28 -21z"/>
<path d="M4615 6210 c3 -5 8 -10 11 -10 2 0 4 5 4 10 0 6 -5 10 -11 10 -5 0
-7 -4 -4 -10z"/>
<path d="M9945 6190 c-15 -7 -9 -8 20 -5 30 4 35 3 20 -4 -19 -9 -19 -10 3
-10 12 -1 22 -6 22 -12 0 -6 7 -8 16 -5 8 3 13 2 10 -2 -2 -4 -1 -14 5 -22 7
-12 9 -11 10 5 0 11 2 29 3 40 2 17 -4 20 -43 22 -25 1 -55 -2 -66 -7z"/>
<path d="M9858 6173 c6 -2 18 -2 25 0 6 3 1 5 -13 5 -14 0 -19 -2 -12 -5z"/>
<path d="M9908 6163 c7 -3 16 -2 19 1 4 3 -2 6 -13 5 -11 0 -14 -3 -6 -6z"/>
<path d="M9936 6150 c-18 -18 -18 -19 3 -13 12 3 21 12 21 19 0 17 -1 17 -24
-6z"/>
<path d="M9854 6144 c-18 -14 -18 -15 4 -4 12 6 22 13 22 15 0 8 -5 6 -26 -11z"/>
<path d="M9980 6150 c-9 -6 -10 -10 -3 -10 6 0 15 5 18 10 8 12 4 12 -15 0z"/>
<path d="M3306 6138 c-3 -10 -8 -25 -11 -33 -6 -21 49 -150 66 -151 9 -1 10 1
2 3 -16 5 -16 12 1 42 l13 23 6 -22 c4 -14 12 -21 23 -18 24 4 21 21 -7 35
-13 7 -38 40 -55 75 -24 46 -34 58 -38 46z m109 -138 c3 -5 -1 -10 -9 -10 -9
0 -16 5 -16 10 0 6 4 10 9 10 6 0 13 -4 16 -10z"/>
<path d="M9714 6129 c-18 -5 -35 -17 -38 -26 -6 -16 -6 -16 12 0 10 9 25 17
33 17 8 0 21 5 29 10 18 12 6 11 -36 -1z"/>
<path d="M9630 6120 c8 -5 22 -9 30 -9 10 0 8 3 -5 9 -27 12 -43 12 -25 0z"/>
<path d="M9890 6126 c0 -2 7 -7 16 -10 8 -3 12 -2 9 4 -6 10 -25 14 -25 6z"/>
<path d="M9935 6120 c-3 -5 -2 -10 4 -10 5 0 13 5 16 10 3 6 2 10 -4 10 -5 0
-13 -4 -16 -10z"/>
<path d="M9585 6111 c16 -8 17 -10 3 -10 -9 -1 -19 -5 -23 -10 -6 -11 74 -6
84 5 3 4 -6 4 -22 0 -19 -4 -26 -3 -25 6 2 6 -6 13 -17 15 l-20 3 20 -9z"/>
<path d="M9525 6100 c-3 -5 -1 -10 4 -10 6 0 11 5 11 10 0 6 -2 10 -4 10 -3 0
-8 -4 -11 -10z"/>
<path d="M4512 6084 c-14 -16 -5 -18 17 -5 7 5 9 11 5 14 -5 3 -15 -1 -22 -9z"/>
<path d="M9708 6093 c6 -2 18 -2 25 0 6 3 1 5 -13 5 -14 0 -19 -2 -12 -5z"/>
<path d="M4190 6065 c-7 -8 -9 -15 -6 -15 4 0 14 7 22 15 9 8 11 15 6 15 -5 0
-15 -7 -22 -15z"/>
<path d="M4260 6076 c0 -3 9 -10 20 -16 11 -6 20 -8 20 -6 0 3 -9 10 -20 16
-11 6 -20 8 -20 6z"/>
<path d="M9385 6070 c-3 -5 -1 -10 4 -10 6 0 11 5 11 10 0 6 -2 10 -4 10 -3 0
-8 -4 -11 -10z"/>
<path d="M4209 6043 l-24 -28 28 24 c25 23 32 31 24 31 -2 0 -14 -12 -28 -27z"/>
<path d="M9345 6060 c-3 -5 -1 -10 4 -10 6 0 11 5 11 10 0 6 -2 10 -4 10 -3 0
-8 -4 -11 -10z"/>
<path d="M4110 6050 l-35 -7 35 -2 c31 -2 33 -3 13 -11 -35 -14 -27 -20 9 -8
18 6 27 13 20 16 -7 2 -10 8 -6 13 3 5 4 8 2 8 -2 -1 -19 -5 -38 -9z"/>
<path d="M9284 6044 c-19 -15 -19 -15 1 -6 11 5 27 12 35 15 13 5 13 6 -1 6
-8 1 -24 -6 -35 -15z"/>
<path d="M4038 6043 c7 -3 16 -2 19 1 4 3 -2 6 -13 5 -11 0 -14 -3 -6 -6z"/>
<path d="M9206 6042 c-5 -9 41 -8 51 1 3 4 -5 7 -20 7 -14 0 -28 -4 -31 -8z"/>
<path d="M9767 6039 c7 -7 15 -10 18 -7 3 3 -2 9 -12 12 -14 6 -15 5 -6 -5z"/>
<path d="M9088 6033 c7 -3 16 -2 19 1 4 3 -2 6 -13 5 -11 0 -14 -3 -6 -6z"/>
<path d="M9285 6023 c-21 -7 -41 -16 -44 -19 -7 -7 63 8 74 16 6 4 19 10 30
13 l20 5 -20 0 c-11 0 -38 -7 -60 -15z"/>
<path d="M3945 6020 c-3 -5 -1 -10 4 -10 6 0 11 5 11 10 0 6 -2 10 -4 10 -3 0
-8 -4 -11 -10z"/>
<path d="M4021 6013 c18 -7 37 -11 43 -9 6 2 2 5 -9 6 -17 2 -16 3 5 10 19 5
14 7 -23 7 l-48 0 32 -14z"/>
<path d="M9026 6018 c4 -5 13 -7 21 -4 8 3 24 1 36 -5 18 -9 20 -9 10 1 -14
15 -75 22 -67 8z"/>
<path d="M9115 6021 c-6 -11 13 -26 22 -17 4 3 0 6 -8 7 -8 0 -6 4 6 9 16 7
17 9 3 9 -9 1 -19 -3 -23 -8z"/>
<path d="M13003 6023 c26 -2 68 -2 95 0 26 2 4 3 -48 3 -52 0 -74 -1 -47 -3z"/>
<path d="M9160 6016 c0 -2 11 -6 25 -8 13 -3 22 -1 19 3 -5 9 -44 13 -44 5z"/>
<path d="M13263 6013 c26 -2 67 -2 90 0 23 2 2 3 -48 3 -49 0 -68 -1 -42 -3z"/>
<path d="M9770 5993 c8 -17 8 -23 -1 -23 -7 0 -10 -3 -6 -6 3 -4 20 2 37 13
26 16 29 21 15 26 -9 4 -13 3 -10 -2 11 -19 -17 -22 -31 -5 -14 18 -14 18 -4
-3z"/>
<path d="M4153 5983 c0 -9 4 -10 14 -2 7 6 13 12 13 14 0 1 -6 2 -13 2 -8 0
-14 -6 -14 -14z"/>
<path d="M9700 5986 c19 -7 37 -12 39 -10 7 7 -3 12 -39 18 l-35 6 35 -14z"/>
<path d="M3435 5980 c-4 -6 1 -7 12 -3 16 6 16 5 4 -10 -10 -13 -17 -14 -33
-6 -11 6 -22 8 -25 5 -3 -3 6 -10 20 -15 18 -7 25 -15 21 -26 -3 -8 -1 -15 4
-15 6 0 9 9 7 20 -5 24 23 28 31 5 4 -8 11 -15 17 -15 5 0 2 9 -8 20 -10 11
-13 20 -8 20 17 0 35 -28 27 -41 -5 -8 -3 -9 5 -4 10 6 11 3 1 -15 -10 -18 -9
-24 7 -36 10 -7 21 -14 26 -14 4 0 7 -5 7 -10 0 -6 -20 1 -45 15 -44 26 -65
26 -65 0 0 -9 26 -22 66 -35 36 -11 67 -20 69 -20 11 0 -5 36 -23 51 -12 9
-19 19 -15 22 5 2 3 2 -4 1 -7 -2 -15 1 -18 6 -4 6 -1 10 5 10 6 0 8 5 4 11
-4 8 1 9 17 4 16 -5 6 8 -30 39 -57 48 -66 52 -76 36z"/>
<path d="M4100 5970 c-8 -5 -12 -12 -9 -15 4 -3 12 1 19 10 14 17 11 19 -10 5z"/>
<path d="M9607 5969 c7 -7 15 -10 18 -7 3 3 -2 9 -12 12 -14 6 -15 5 -6 -5z"/>
<path d="M3215 5923 c-110 -33 -220 -59 -455 -108 -69 -15 -168 -40 -220 -57
-92 -29 -459 -167 -760 -285 l-145 -57 -160 2 c-283 5 -477 23 -705 68 -19 4
-32 4 -29 1 8 -10 179 -43 319 -62 69 -10 211 -20 317 -24 l192 -6 -27 -43
c-15 -23 -55 -85 -89 -137 -34 -52 -57 -92 -50 -89 14 6 170 198 196 241 12
19 33 33 61 42 53 16 437 157 675 248 238 92 308 110 710 188 187 37 341 70
343 75 2 5 10 6 19 3 11 -4 14 -3 9 6 -4 7 -13 10 -19 8 -7 -2 -25 1 -42 7
-26 10 -45 8 -140 -21z"/>
<path d="M4120 5950 c-9 -6 -10 -10 -3 -10 6 0 15 5 18 10 8 12 4 12 -15 0z"/>
<path d="M9579 5949 c-10 -6 -7 -9 14 -9 29 0 35 5 14 13 -8 3 -20 1 -28 -4z"/>
<path d="M9786 5951 c-4 -5 3 -7 14 -4 23 6 26 13 6 13 -8 0 -17 -4 -20 -9z"/>
<path d="M9648 5943 c7 -3 16 -2 19 1 4 3 -2 6 -13 5 -11 0 -14 -3 -6 -6z"/>
<path d="M12169 5929 c24 -11 46 -18 48 -15 4 4 -73 36 -85 35 -4 0 13 -9 37
-20z"/>
<path d="M3457 5909 c-5 -17 -3 -18 9 -8 12 10 13 9 8 -5 -3 -9 -2 -16 4 -16
19 0 20 26 2 38 -15 9 -19 7 -23 -9z"/>
<path d="M9516 5921 c-3 -4 6 -6 19 -3 14 2 25 6 25 8 0 8 -39 4 -44 -5z"/>
<path d="M9035 5909 c-4 -6 -5 -12 -2 -15 2 -3 7 2 10 11 7 17 1 20 -8 4z"/>
<path d="M9141 5897 c12 -10 24 -15 28 -12 3 3 -1 10 -8 14 -11 7 -11 9 0 14
8 2 1 4 -14 3 l-28 -1 22 -18z"/>
<path d="M9211 5901 l-33 -18 33 0 c19 0 28 2 20 5 -10 3 -7 9 10 18 13 7 20
13 14 13 -5 0 -25 -8 -44 -18z"/>
<path d="M9265 5900 l-20 -9 20 0 c11 0 27 4 35 9 13 9 13 10 0 9 -8 0 -24 -4
-35 -9z"/>
<path d="M12240 5900 c8 -5 20 -10 25 -10 6 0 3 5 -5 10 -8 5 -19 10 -25 10
-5 0 -3 -5 5 -10z"/>
<path d="M3560 5886 c0 -7 40 -14 44 -7 3 4 -6 8 -20 9 -13 1 -24 0 -24 -2z"/>
<path d="M9123 5875 c0 -7 6 -11 14 -8 7 3 13 6 13 8 0 2 -6 5 -13 8 -8 3 -14
-1 -14 -8z"/>
<path d="M3560 5866 c0 -2 7 -7 16 -10 8 -3 12 -2 9 4 -6 10 -25 14 -25 6z"/>
<path d="M3428 5633 c7 -3 16 -2 19 1 4 3 -2 6 -13 5 -11 0 -14 -3 -6 -6z"/>
<path d="M3365 5620 c-13 -5 -14 -9 -5 -9 8 0 24 4 35 9 13 5 14 9 5 9 -8 0
-24 -4 -35 -9z"/>
<path d="M3280 5595 c-19 -7 -28 -13 -20 -13 8 0 31 6 50 13 19 7 28 13 20 13
-8 0 -31 -6 -50 -13z"/>
<path d="M3195 5570 c-13 -5 -14 -9 -5 -9 8 0 24 4 35 9 13 5 14 9 5 9 -8 0
-24 -4 -35 -9z"/>
<path d="M498 5533 c7 -3 16 -2 19 1 4 3 -2 6 -13 5 -11 0 -14 -3 -6 -6z"/>
<path d="M2983 5470 c-40 -33 -114 -101 -165 -151 -96 -95 -80 -87 27 12 33
32 94 85 135 119 93 77 96 80 85 80 -6 0 -42 -27 -82 -60z"/>
<path d="M588 5513 c6 -2 18 -2 25 0 6 3 1 5 -13 5 -14 0 -19 -2 -12 -5z"/>
<path d="M638 5503 c6 -2 18 -2 25 0 6 3 1 5 -13 5 -14 0 -19 -2 -12 -5z"/>
<path d="M2489 4982 c-110 -113 -242 -236 -304 -285 -60 -47 -123 -98 -140
-112 l-30 -26 30 18 c17 10 51 32 76 50 31 22 58 33 82 33 32 0 35 -3 41 -33
3 -19 24 -93 46 -165 21 -72 46 -180 54 -242 9 -61 23 -127 31 -148 9 -20 48
-68 88 -107 40 -38 104 -102 141 -142 l68 -71 -35 -54 c-46 -71 -72 -92 -212
-175 -156 -92 -317 -207 -660 -471 -304 -234 -711 -555 -735 -580 -35 -35 22
7 220 163 243 191 513 394 701 527 221 157 602 404 634 412 17 4 51 20 77 36
31 20 117 48 260 86 117 31 215 59 218 61 6 6 9 7 -181 -32 l-136 -28 -69 38
c-67 37 -274 225 -274 249 0 6 -22 43 -49 83 -54 79 -58 93 -96 328 -15 88
-34 202 -44 254 l-18 95 66 65 c85 85 354 371 348 371 -2 0 -91 -89 -198 -198z"/>
<path d="M5255 5120 c3 -5 8 -10 11 -10 2 0 4 5 4 10 0 6 -5 10 -11 10 -5 0
-7 -4 -4 -10z"/>
<path d="M5248 5092 c5 -9 12 -24 15 -32 3 -8 5 -3 4 12 -1 15 -7 30 -14 33
-10 3 -11 0 -5 -13z"/>
<path d="M5223 5067 c0 -9 7 -19 16 -22 13 -5 14 -7 1 -15 -9 -6 -10 -10 -3
-10 21 0 23 17 5 40 -15 18 -19 19 -19 7z"/>
<path d="M5190 5012 c0 -12 3 -12 15 -2 8 7 15 13 15 15 0 1 -7 2 -15 2 -8 0
-15 -7 -15 -15z"/>
<path d="M5160 5010 c0 -6 -7 -10 -16 -8 -19 3 -28 -28 -12 -39 7 -4 8 -1 3 7
-6 10 -4 12 9 7 9 -4 15 -3 11 2 -3 6 2 14 11 19 11 6 13 11 5 16 -6 4 -11 2
-11 -4z"/>
<path d="M5052 4942 c-23 -27 -23 -27 -17 -3 5 17 4 21 -4 16 -17 -10 -9 -38
11 -41 21 -3 49 28 40 43 -5 8 -15 3 -30 -15z m28 4 c0 -2 -8 -10 -17 -17 -16
-13 -17 -12 -4 4 13 16 21 21 21 13z"/>
<path d="M11000 4795 c25 -13 50 -24 55 -24 6 0 -10 11 -35 24 -25 13 -49 24
-55 24 -5 0 10 -11 35 -24z"/>
<path d="M11090 4755 c14 -8 30 -14 35 -14 6 0 -1 6 -15 14 -14 8 -29 14 -35
14 -5 0 1 -6 15 -14z"/>
<path d="M11150 4730 c8 -5 20 -10 25 -10 6 0 3 5 -5 10 -8 5 -19 10 -25 10
-5 0 -3 -5 5 -10z"/>
<path d="M11200 4710 c8 -5 20 -10 25 -10 6 0 3 5 -5 10 -8 5 -19 10 -25 10
-5 0 -3 -5 5 -10z"/>
<path d="M8982 4033 c-6 -2 -10 -9 -6 -14 3 -5 7 -19 9 -30 6 -30 13 -35 33
-22 19 12 19 53 -1 65 -13 9 -16 9 -35 1z"/>
<path d="M9032 3918 c-16 -16 3 -48 28 -48 23 0 24 1 8 35 -13 28 -19 30 -36
13z"/>
<path d="M12517 3914 c-3 -3 67 -62 156 -131 89 -69 170 -132 180 -141 9 -8
17 -13 17 -9 0 5 -337 287 -343 287 -2 0 -6 -3 -10 -6z"/>
<path d="M9074 3806 c-7 -18 73 -177 140 -281 98 -150 345 -470 325 -420 -2 6
-81 125 -174 265 -103 154 -188 293 -215 352 -43 92 -64 116 -76 84z"/>
<path d="M3158 3763 c7 -3 16 -2 19 1 4 3 -2 6 -13 5 -11 0 -14 -3 -6 -6z"/>
<path d="M12895 3610 c10 -11 20 -20 23 -20 3 0 -3 9 -13 20 -10 11 -20 20
-23 20 -3 0 3 -9 13 -20z"/>
<path d="M12930 3586 c0 -2 8 -10 18 -17 15 -13 16 -12 3 4 -13 16 -21 21 -21
13z"/>
<path d="M7161 3320 c-32 -84 -55 -165 -66 -237 -6 -39 0 -55 86 -224 51 -100
94 -178 97 -171 5 15 -36 107 -81 182 -52 84 -67 121 -78 190 -8 53 -6 66 36
195 25 76 43 140 41 142 -2 2 -18 -32 -35 -77z"/>
<path d="M13455 3110 c10 -11 20 -20 23 -20 3 0 -3 9 -13 20 -10 11 -20 20
-23 20 -3 0 3 -9 13 -20z"/>
</g>
</svg>
