<?xml version="1.0" standalone="no"?>
<!DOCTYPE svg PUBLIC "-//W3C//DTD SVG 20010904//EN"
 "http://www.w3.org/TR/2001/REC-SVG-20010904/DTD/svg10.dtd">
<svg version="1.0" xmlns="http://www.w3.org/2000/svg"
 width="578.000000pt" height="502.000000pt" viewBox="0 0 578.000000 502.000000"
 preserveAspectRatio="xMidYMid meet">

<g transform="translate(0.000000,502.000000) scale(0.100000,-0.100000)"
fill="#2D572C" stroke="none">
<path d="M1728 4993 c-39 -46 -50 -114 -25 -163 20 -39 43 -36 76 11 37 50 38
68 10 126 -23 47 -37 53 -61 26z"/>
<path d="M2575 4967 c-29 -17 -43 -33 -53 -62 -12 -36 -9 -105 4 -105 16 0 85
43 98 62 20 28 22 128 4 128 -7 0 -31 -11 -53 -23z"/>
<path d="M3839 4898 c-26 -36 -30 -50 -26 -85 l5 -43 -31 26 c-38 32 -71 29
-75 -7 -4 -37 34 -76 82 -85 l39 -7 -5 32 c-5 31 -4 31 14 11 14 -15 23 -18
37 -10 25 13 51 71 51 112 0 34 -32 98 -50 98 -5 0 -24 -19 -41 -42z"/>
<path d="M2383 4855 c8 -49 33 -74 80 -82 35 -5 37 -4 37 21 0 35 -47 85 -89
93 l-34 6 6 -38z"/>
<path d="M2166 4849 c-31 -36 -41 -69 -32 -109 l5 -29 -32 19 c-18 11 -43 20
-56 20 -22 0 -23 -3 -18 -37 8 -46 38 -73 83 -73 30 0 34 3 34 28 1 23 2 25
11 9 7 -11 15 -15 24 -9 27 15 65 76 65 105 0 29 -37 107 -51 107 -4 0 -19
-14 -33 -31z"/>
<path d="M1522 4835 l-34 -15 22 -30 c41 -58 114 -76 171 -43 16 10 29 20 29
24 0 4 -18 23 -40 43 -45 40 -89 47 -148 21z"/>
<path d="M2621 4805 c-56 -48 -50 -85 14 -85 37 0 70 22 90 59 13 27 13 29
-11 40 -38 17 -59 14 -93 -14z"/>
<path d="M3985 4803 c-39 -11 -64 -35 -79 -79 -15 -44 -15 -44 10 -50 45 -11
97 3 126 36 27 29 46 76 35 86 -8 8 -70 13 -92 7z"/>
<path d="M1762 4717 c55 -47 104 -136 116 -210 6 -34 13 -128 16 -208 3 -80 9
-161 12 -180 l6 -34 -22 25 c-12 14 -38 50 -57 80 -48 72 -111 139 -202 213
-64 53 -71 61 -54 68 54 20 81 109 48 154 -15 19 -16 19 -46 -12 -32 -31 -40
-73 -24 -123 5 -15 4 -20 -4 -16 -6 4 -11 3 -11 -3 0 -5 3 -11 8 -13 15 -6
131 -145 170 -203 22 -33 78 -138 125 -233 94 -191 95 -183 -16 -135 -68 31
-118 82 -142 149 -10 27 -24 56 -32 65 -17 21 -17 35 1 20 11 -10 17 -7 30 11
24 34 20 92 -7 124 l-24 27 -22 -32 c-16 -22 -22 -42 -19 -64 3 -32 3 -32 -34
-28 -43 4 -49 -9 -22 -47 11 -16 25 -22 54 -22 37 0 40 -2 49 -37 11 -40 35
-91 65 -135 35 -53 170 -138 218 -138 13 0 66 -47 145 -130 155 -161 194 -209
232 -280 l30 -57 -109 -12 c-106 -12 -111 -12 -139 8 -16 12 -54 63 -84 114
-56 92 -83 125 -124 146 -36 18 -35 13 4 -23 39 -35 56 -64 116 -198 l35 -76
-73 -7 c-40 -4 -92 -4 -116 0 -80 13 -149 71 -149 126 0 16 -4 29 -10 29 -15
0 1 -102 22 -137 23 -39 71 -69 141 -91 41 -13 100 -16 277 -16 257 -1 295 -8
324 -58 39 -68 57 -106 61 -128 3 -13 14 -51 25 -84 18 -57 78 -325 86 -391 2
-16 18 -73 34 -127 17 -53 30 -101 30 -108 0 -19 -177 79 -232 129 -80 72
-165 220 -183 318 -10 57 -82 214 -105 228 -14 9 -13 4 14 -56 24 -56 56 -185
56 -223 -1 -35 -99 80 -145 171 -49 95 -44 87 -50 82 -6 -7 28 -117 50 -159
32 -61 93 -137 128 -159 20 -12 40 -35 47 -54 6 -17 23 -56 36 -86 22 -48 23
-53 7 -48 -10 3 -74 25 -142 50 l-125 44 -96 99 c-228 236 -339 436 -456 824
-18 63 -34 122 -34 131 0 9 -22 60 -48 115 l-48 99 17 60 c11 38 18 96 18 160
1 216 -34 355 -108 437 -24 27 -46 46 -49 43 -3 -3 4 -15 16 -28 49 -52 105
-217 74 -217 -6 0 -37 30 -69 67 -115 132 -153 173 -153 165 0 -4 16 -30 35
-57 19 -28 59 -86 89 -130 30 -44 65 -96 79 -115 25 -34 25 -37 16 -128 -5
-51 -14 -105 -20 -120 l-11 -27 -16 30 c-8 17 -30 64 -47 105 -46 110 -116
203 -204 272 -42 32 -98 78 -126 101 -60 51 -42 26 73 -100 101 -109 119 -136
160 -233 37 -86 121 -330 115 -330 -16 0 -185 96 -218 124 -40 34 -40 34 -42
115 -2 51 -11 101 -24 136 -27 73 -41 79 -23 9 8 -30 14 -81 12 -112 l-3 -56
-45 69 c-56 86 -152 182 -205 206 -43 18 -125 31 -125 19 0 -4 17 -10 38 -14
54 -8 126 -59 160 -114 17 -26 55 -95 86 -154 52 -101 54 -108 33 -108 -25 1
-80 13 -276 59 -149 36 -207 37 -91 3 41 -13 134 -48 205 -79 96 -42 146 -58
190 -61 50 -4 68 -10 110 -42 63 -48 164 -112 233 -147 49 -26 54 -32 69 -83
9 -30 38 -106 65 -168 27 -62 57 -138 67 -170 10 -31 22 -65 26 -74 12 -29
-10 -22 -118 38 -55 31 -126 64 -156 73 -53 16 -58 21 -96 84 -23 37 -61 88
-85 113 -49 51 -171 147 -177 140 -3 -2 17 -24 43 -48 26 -23 69 -72 95 -108
27 -36 53 -70 58 -76 6 -7 17 -28 25 -48 l15 -36 -67 5 c-219 18 -203 12 -252
95 -22 37 -170 172 -170 155 0 -4 23 -33 51 -63 60 -65 105 -130 96 -138 -5
-5 -97 18 -202 52 -56 17 -145 32 -240 40 -44 3 -100 13 -124 20 -56 19 -93
11 -131 -28 -43 -43 -40 -65 13 -79 57 -15 114 4 142 48 18 29 23 31 60 26 63
-9 256 -59 300 -78 l40 -18 -36 -12 c-76 -27 -127 -61 -210 -141 -67 -65 -94
-84 -116 -84 -21 0 -24 -3 -14 -9 22 -14 75 11 157 75 39 30 97 63 128 74 72
24 205 43 253 35 98 -17 295 -59 358 -76 176 -51 225 -78 333 -191 103 -108
261 -282 259 -285 -2 -1 -20 2 -42 7 -107 25 -225 8 -435 -61 l-65 -21 -123
25 c-82 17 -139 35 -175 55 -70 40 -160 66 -203 58 -44 -9 -44 -26 -1 -26 41
0 123 -27 159 -51 14 -11 29 -19 32 -19 3 0 35 -18 71 -40 35 -22 76 -42 90
-46 14 -3 25 -10 25 -15 0 -5 -2 -9 -4 -9 -2 0 -39 -6 -82 -14 -140 -26 -186
-28 -372 -12 -167 15 -317 13 -326 -3 -2 -3 39 -7 93 -7 53 -1 161 -12 241
-24 241 -36 392 -28 540 30 195 76 389 108 497 81 26 -7 149 -62 272 -123
l223 -110 -83 -27 c-46 -16 -114 -36 -151 -46 l-68 -18 -44 29 c-24 16 -72 50
-106 76 -66 51 -151 83 -242 93 l-53 5 50 -18 c101 -38 166 -75 220 -124 31
-28 54 -52 53 -53 -2 -2 -50 3 -108 11 -134 18 -550 31 -550 17 0 -6 47 -13
108 -17 98 -6 275 -36 288 -49 8 -8 -129 -102 -195 -135 -75 -36 -176 -38
-236 -4 l-40 23 31 -30 c45 -41 145 -59 240 -41 77 14 121 34 209 94 58 39 63
41 140 41 44 0 108 -6 143 -14 75 -17 190 -9 415 29 52 9 97 9 185 0 211 -21
203 -19 238 -72 18 -26 43 -85 57 -130 26 -82 26 -90 32 -503 5 -279 3 -442
-4 -485 -6 -36 -15 -205 -21 -377 -5 -171 -12 -317 -14 -325 -3 -7 -8 -49 -12
-93 -12 -151 -16 -138 46 -159 79 -28 282 -29 359 -2 l54 19 -7 97 c-3 53 -19
170 -35 261 -55 306 -59 352 -68 809 -9 547 -9 568 -1 610 14 68 69 206 108
271 46 77 83 112 160 148 54 26 58 26 295 26 181 0 267 -4 350 -18 108 -17
111 -18 143 -57 42 -50 136 -122 182 -140 22 -9 99 -16 210 -19 l175 -6 13
-29 c20 -40 84 -102 134 -127 50 -25 178 -40 178 -20 0 7 -4 10 -9 7 -18 -12
-111 16 -150 45 -39 28 -101 102 -101 120 0 5 28 -6 61 -23 92 -48 138 -45
264 20 55 29 96 52 91 52 -5 0 -43 -12 -85 -26 -41 -14 -97 -28 -125 -31 -47
-4 -57 -1 -116 36 -97 62 -128 74 -174 67 -147 -21 -184 -19 -260 8 -41 15
-82 37 -93 48 l-18 20 55 -8 c30 -5 107 -9 170 -9 102 0 121 3 170 26 30 14
82 49 115 79 80 71 133 94 193 85 66 -10 151 -44 192 -76 67 -54 174 -78 264
-59 61 12 141 45 151 60 3 5 -11 2 -32 -7 -26 -11 -68 -17 -133 -17 -84 -1
-100 2 -139 24 -25 14 -46 30 -48 35 -2 6 21 21 49 34 112 51 224 145 262 220
22 42 7 39 -21 -3 -30 -46 -151 -141 -221 -174 -77 -36 -211 -38 -285 -4 -90
40 -167 22 -272 -63 -23 -19 -58 -41 -78 -50 -54 -22 -241 -20 -358 5 -164 34
-350 78 -355 82 -4 5 115 106 171 145 28 20 33 20 65 6 62 -26 173 -42 248
-36 56 5 76 2 96 -10 13 -9 43 -20 66 -23 40 -7 100 11 220 63 54 24 22 26
-45 3 -69 -24 -181 -27 -210 -6 -18 13 -17 15 20 31 54 22 198 64 260 75 36 6
16 7 -70 3 -72 -3 -146 -12 -185 -23 -108 -30 -177 -41 -217 -35 -41 7 -116
36 -109 42 13 14 183 45 309 58 81 8 167 19 190 25 117 31 221 108 300 225 22
33 44 62 47 65 11 7 42 71 38 76 -2 2 -19 -16 -37 -39 -74 -97 -176 -190 -241
-221 l-65 -31 -230 -1 c-277 -2 -343 -15 -498 -99 -66 -36 -97 -49 -97 -39 0
39 50 122 114 192 53 57 6 34 -53 -26 -35 -37 -70 -88 -95 -138 -50 -102 -63
-115 -173 -180 -90 -54 -92 -54 -175 -54 -85 0 -135 -6 -291 -34 -98 -17 -206
-67 -263 -121 -31 -30 -34 -31 -40 -13 -19 60 3 244 40 332 18 44 114 96 175
96 114 0 367 -88 440 -154 13 -11 22 -16 20 -10 -14 40 -274 204 -324 204 -8
0 -15 5 -15 10 0 6 8 10 18 10 20 0 116 31 167 54 17 7 57 23 90 36 33 12 87
35 120 50 33 16 109 52 169 80 l109 51 51 -18 c42 -15 85 -18 241 -18 211 0
224 3 304 72 53 45 47 54 -9 14 -51 -37 -135 -55 -213 -47 -64 6 -227 47 -227
56 0 13 247 51 417 65 227 18 318 44 394 113 27 24 48 47 45 50 -3 2 -21 -9
-41 -26 -54 -48 -91 -64 -190 -79 -66 -10 -138 -12 -272 -7 -101 4 -183 10
-183 14 0 4 29 35 64 69 81 77 159 115 223 108 33 -3 42 -2 34 6 -17 17 -108
12 -166 -8 -65 -23 -126 -64 -200 -136 -48 -47 -70 -60 -110 -69 -107 -23
-282 -88 -418 -156 -101 -50 -113 -53 -93 -21 102 165 149 222 242 292 25 19
42 35 38 35 -26 0 -214 -135 -232 -166 -4 -8 -33 -40 -64 -72 -44 -45 -89 -75
-210 -139 -125 -67 -228 -112 -257 -113 -3 0 65 71 150 158 158 160 206 226
274 374 22 47 31 58 58 64 103 22 327 89 353 105 17 10 38 19 46 19 7 0 56 25
108 55 150 87 226 124 290 141 52 13 63 13 95 0 43 -18 37 -3 -8 20 -47 25
-133 13 -254 -36 -56 -22 -115 -47 -130 -55 -36 -19 -39 -7 -12 47 78 154 130
184 458 268 217 54 294 96 347 185 33 57 26 69 -9 16 -34 -51 -129 -107 -216
-127 -70 -17 -290 -44 -355 -44 l-38 0 58 68 c32 37 86 97 120 134 71 76 83
109 58 162 -10 20 -21 36 -25 36 -16 0 -49 -59 -49 -88 0 -16 9 -41 20 -54
l19 -25 -34 -25 c-90 -64 -417 -372 -481 -453 -69 -86 -86 -105 -131 -135 -46
-30 -209 -87 -220 -76 -3 2 -2 28 2 56 6 43 15 61 56 106 71 79 123 192 133
289 3 28 13 106 21 175 9 69 18 208 20 310 l5 185 -20 -140 c-11 -77 -20 -153
-21 -170 -4 -89 -55 -298 -101 -414 -28 -72 -66 -137 -74 -128 -2 2 -9 30 -15
63 -30 172 -115 329 -231 429 -49 42 -208 149 -213 143 -2 -2 32 -30 76 -63
215 -158 309 -331 309 -565 0 -54 -3 -111 -6 -129 l-6 -31 -29 39 c-15 22 -51
61 -79 88 l-51 49 13 47 c17 66 -1 165 -54 284 -43 97 -63 122 -30 37 39 -100
51 -268 22 -313 -11 -19 -49 9 -127 93 -81 86 -116 158 -110 225 3 27 8 55 12
60 3 6 2 11 -4 11 -31 0 -32 -141 -1 -222 38 -102 93 -172 205 -259 100 -78
188 -177 201 -227 9 -31 -78 -229 -129 -295 -57 -73 -149 -167 -164 -167 -19
0 -218 199 -237 237 -14 28 -14 39 -2 90 27 113 117 309 147 318 48 16 72 85
48 139 -12 25 -13 25 -40 9 -30 -18 -49 -51 -49 -85 0 -20 -1 -20 -12 -5 -7 9
-26 21 -41 26 -22 9 -29 8 -33 -4 -10 -26 16 -73 47 -85 16 -7 29 -14 29 -17
0 -2 -17 -30 -37 -61 -21 -31 -58 -97 -84 -145 l-46 -89 -21 59 c-61 170 -73
419 -28 581 15 56 22 68 70 120 36 38 26 42 -20 7 -76 -58 -150 -244 -156
-392 -1 -24 -5 -43 -10 -43 -4 0 -7 3 -6 8 1 4 -6 32 -17 62 -21 59 -27 226
-13 325 l8 50 -26 -70 c-20 -54 -27 -96 -31 -186 -6 -130 7 -195 58 -287 20
-35 31 -72 34 -107 2 -30 17 -92 33 -139 18 -55 24 -86 17 -86 -7 0 -40 19
-75 43 -101 67 -179 192 -180 286 -1 22 -2 23 -11 9 -16 -28 7 -135 45 -213
44 -90 91 -134 201 -193 87 -46 91 -50 182 -170 51 -68 93 -126 93 -128 0 -3
-36 -46 -81 -96 -63 -72 -92 -116 -133 -201 l-53 -109 -16 58 c-9 33 -19 75
-22 94 -17 98 -87 285 -165 440 -21 41 -48 104 -60 140 -11 36 -25 74 -30 85
-26 53 -82 236 -87 281 -6 53 18 146 58 225 29 58 106 297 125 389 11 50 18
130 19 195 0 100 -2 115 -27 166 -17 34 -38 60 -53 67 -39 18 -39 15 -2 -21
58 -54 69 -134 42 -288 -21 -124 -108 -390 -121 -376 -8 7 -45 151 -50 189 -3
20 -11 59 -20 85 -8 26 -17 104 -20 173 -7 167 -13 230 -25 230 -5 0 -7 -10
-4 -23 4 -13 -1 -81 -10 -152 -10 -81 -14 -160 -10 -210 l6 -80 -23 28 c-51
59 -90 138 -113 228 l-24 94 6 -85 c9 -150 41 -231 134 -342 33 -39 59 -73 59
-77 0 -3 9 -46 19 -95 l18 -89 -38 -86 c-21 -47 -44 -110 -50 -138 -7 -29 -15
-53 -19 -53 -4 0 -61 55 -127 123 -129 131 -143 155 -143 247 0 25 -9 88 -20
140 -27 123 -58 294 -64 347 -3 23 -17 63 -31 87 -28 48 -148 166 -168 166 -7
0 5 -15 25 -33z"/>
<path d="M2653 4705 c-18 -8 -33 -19 -33 -24 0 -6 14 -26 31 -46 29 -32 35
-35 88 -35 32 0 65 6 76 14 18 13 18 14 -4 45 -41 57 -96 73 -158 46z"/>
<path d="M3212 4656 c-39 -45 -45 -66 -32 -114 19 -72 54 -79 90 -20 25 42 25
94 0 136 -11 17 -22 32 -24 32 -2 0 -17 -15 -34 -34z"/>
<path d="M817 4630 c-25 -51 -26 -64 -1 -124 7 -17 4 -17 -23 4 -24 17 -38 20
-62 15 -36 -8 -37 -12 -15 -45 26 -39 45 -50 87 -50 37 0 39 2 35 25 -4 20 -3
23 8 14 22 -18 38 -5 57 47 13 38 15 57 7 83 -9 33 -46 81 -61 81 -4 0 -19
-23 -32 -50z"/>
<path d="M2959 4653 c-11 -77 47 -143 126 -143 41 0 45 15 19 79 -12 30 -25
43 -55 55 -42 17 -88 21 -90 9z"/>
<path d="M3700 4645 c0 -23 46 -65 70 -65 27 0 25 25 -5 55 -27 28 -65 33 -65
10z"/>
<path d="M3969 4605 c-23 -12 -59 -55 -59 -69 0 -13 62 -36 94 -36 27 0 46 9
76 36 22 20 40 40 40 45 0 15 -58 39 -92 39 -18 -1 -45 -7 -59 -15z"/>
<path d="M1420 4580 c0 -32 19 -80 32 -80 4 0 8 -4 8 -10 0 -5 -6 -10 -13 -10
-7 0 -23 -7 -36 -17 l-24 -16 23 -19 c36 -29 110 -16 110 20 0 6 -8 16 -17 22
-16 10 -16 11 4 7 29 -6 36 15 23 65 -9 31 -18 43 -45 54 -52 21 -65 18 -65
-16z"/>
<path d="M3634 4576 c-46 -20 -50 -34 -20 -64 21 -22 35 -26 80 -26 84 0 111
35 57 73 -39 28 -79 34 -117 17z"/>
<path d="M3353 4555 c-33 -14 -63 -59 -63 -95 0 -15 6 -20 29 -20 43 0 91 51
91 96 0 38 -8 41 -57 19z"/>
<path d="M2995 4475 c-31 -30 -31 -39 0 -53 39 -18 60 -15 94 14 50 42 38 64
-35 64 -24 0 -43 -8 -59 -25z"/>
<path d="M4962 4474 c-29 -20 -52 -65 -53 -106 0 -30 -1 -31 -11 -12 -11 24
-48 44 -80 44 -18 0 -20 -4 -15 -37 7 -42 40 -79 80 -88 25 -7 27 -5 28 26 l1
34 10 -27 c5 -16 13 -28 18 -28 4 0 26 20 49 45 43 47 52 85 31 139 -11 30
-26 32 -58 10z"/>
<path d="M525 4446 c-19 -44 -19 -68 -1 -109 13 -33 54 -67 79 -67 18 0 41 80
32 109 -8 27 -51 78 -76 92 -17 9 -22 5 -34 -25z"/>
<path d="M3399 4455 c-52 -34 -55 -52 -16 -75 52 -32 123 -24 167 20 26 26 14
53 -31 69 -49 17 -81 13 -120 -14z"/>
<path d="M3720 4469 c-25 -9 -60 -55 -60 -78 0 -12 58 -15 85 -5 26 10 49 63
34 80 -13 16 -23 16 -59 3z"/>
<path d="M3940 4471 c-36 -10 -36 -36 -2 -71 22 -21 40 -30 64 -30 53 0 63 12
44 49 -13 25 -65 64 -78 60 -2 -1 -14 -4 -28 -8z"/>
<path d="M2718 4418 c-27 -41 -30 -66 -12 -103 23 -49 31 -51 54 -13 24 40 25
71 3 109 -21 35 -26 36 -45 7z"/>
<path d="M3880 4335 c0 -63 23 -103 73 -125 22 -10 45 -16 49 -14 4 3 8 29 8
57 0 62 -18 93 -66 113 -56 23 -64 20 -64 -31z"/>
<path d="M4137 4353 c-14 -13 -7 -89 12 -123 13 -25 32 -41 64 -54 26 -11 50
-16 54 -13 4 4 7 30 8 58 1 36 -4 58 -18 75 -27 35 -105 72 -120 57z"/>
<path d="M398 4340 c-46 -14 -49 -19 -32 -51 18 -36 69 -69 106 -69 l26 0 -29
-29 c-16 -16 -29 -39 -29 -50 0 -17 6 -21 34 -21 48 0 65 8 81 41 24 45 19 59
-17 60 -32 0 -32 1 -8 10 13 6 26 12 28 14 11 11 -45 79 -74 91 -37 15 -47 16
-86 4z"/>
<path d="M4304 4307 c-15 -31 -15 -36 0 -65 20 -38 29 -40 50 -10 18 26 20 61
6 89 -16 29 -38 23 -56 -14z"/>
<path d="M5008 4311 c-47 -41 -54 -69 -22 -82 65 -24 133 -4 166 48 26 44 16
55 -55 61 -49 4 -57 1 -89 -27z"/>
<path d="M2793 4300 c-41 -24 -41 -35 -3 -55 40 -21 72 -19 104 6 33 26 33 35
-4 54 -38 20 -58 19 -97 -5z"/>
<path d="M4544 4281 c-46 -28 -48 -38 -15 -56 41 -21 83 -19 115 6 34 27 33
33 -8 53 -43 20 -54 20 -92 -3z"/>
<path d="M4073 4180 c-30 -12 -29 -23 8 -59 36 -37 86 -44 133 -19 17 9 15 13
-20 49 -40 41 -72 48 -121 29z"/>
<path d="M4954 4166 c-8 -22 32 -91 61 -104 37 -17 114 -16 121 2 8 20 -20 70
-52 95 -32 25 -121 30 -130 7z"/>
<path d="M4874 4074 c-8 -42 14 -78 64 -107 l30 -18 4 53 c3 47 0 56 -23 81
-39 39 -66 36 -75 -9z"/>
<path d="M4793 4038 c-47 -51 -55 -72 -43 -116 16 -59 24 -68 54 -54 39 17 61
60 60 113 -2 46 -17 89 -32 89 -5 0 -22 -15 -39 -32z"/>
<path d="M4602 3850 c-41 -25 -49 -40 -27 -57 31 -22 88 -16 115 12 27 29 21
40 -27 54 -24 7 -38 5 -61 -9z"/>
<path d="M540 3838 c-30 -33 -26 -58 9 -58 43 0 60 9 76 40 17 33 12 40 -31
40 -21 0 -41 -8 -54 -22z"/>
<path d="M653 3805 c-49 -30 -67 -69 -60 -131 6 -60 17 -70 53 -51 63 32 91
93 74 159 -6 20 -14 39 -18 42 -5 3 -26 -6 -49 -19z"/>
<path d="M751 3774 c-11 -41 -1 -77 31 -111 28 -30 34 -29 54 8 19 38 13 84
-18 116 -32 34 -55 30 -67 -13z"/>
<path d="M3160 3780 c-37 -35 -35 -51 8 -64 40 -11 85 7 113 45 19 28 19 28 0
38 -38 21 -87 13 -121 -19z"/>
<path d="M4553 3764 c-18 -8 4 -60 34 -84 25 -19 111 -29 126 -14 10 10 -20
60 -49 83 -25 20 -80 27 -111 15z"/>
<path d="M1746 3743 c-11 -11 -6 -64 8 -92 15 -28 61 -56 77 -46 12 8 11 59
-2 88 -11 24 -72 61 -83 50z"/>
<path d="M4510 3665 c0 -26 6 -39 26 -51 22 -15 27 -15 35 -3 15 23 10 44 -14
67 -33 31 -47 28 -47 -13z"/>
<path d="M1965 3655 c-28 -27 -34 -82 -11 -91 21 -8 63 23 73 54 21 61 -17 83
-62 37z"/>
<path d="M1036 3589 c-29 -34 -32 -53 -12 -87 l13 -24 31 27 c22 18 32 36 32
55 0 66 -24 77 -64 29z"/>
<path d="M154 3578 c-11 -49 -6 -87 16 -118 20 -28 76 -58 87 -46 3 3 8 30 11
60 4 52 3 55 -38 95 -23 23 -48 41 -55 41 -8 0 -17 -15 -21 -32z"/>
<path d="M1727 3579 c-9 -5 -24 -23 -32 -40 -15 -29 -15 -30 12 -40 38 -14 94
8 112 45 11 24 11 30 0 37 -19 12 -70 11 -92 -2z"/>
<path d="M2004 3556 c-34 -28 -27 -40 21 -40 34 0 68 27 61 49 -6 21 -54 16
-82 -9z"/>
<path d="M1134 3550 c-21 -8 -54 -65 -54 -94 0 -12 10 -16 40 -16 49 0 97 40
106 88 6 32 6 32 -32 31 -22 0 -48 -4 -60 -9z"/>
<path d="M2026 3497 c-16 -12 -16 -14 4 -40 17 -21 30 -27 60 -27 22 0 43 6
51 16 11 14 10 20 -14 40 -31 26 -74 31 -101 11z"/>
<path d="M3975 3486 c-43 -19 -55 -37 -62 -95 -5 -48 -4 -51 16 -51 60 0 115
62 109 123 -3 37 -19 42 -63 23z"/>
<path d="M4649 3451 c-35 -35 -37 -56 -6 -66 l22 -8 -23 -4 c-18 -4 -22 -9
-16 -26 13 -43 54 -86 92 -96 44 -12 96 -1 100 21 4 23 -47 79 -91 98 -35 16
-37 19 -18 25 23 7 55 60 46 75 -3 6 -22 10 -41 10 -26 0 -44 -8 -65 -29z"/>
<path d="M1125 3416 c-18 -13 -17 -14 7 -30 42 -27 105 -3 78 29 -16 19 -60
19 -85 1z"/>
<path d="M2093 3400 c-26 -11 -28 -18 -10 -41 28 -37 80 -49 111 -26 16 12 17
16 5 35 -13 21 -50 43 -72 41 -7 0 -22 -4 -34 -9z"/>
<path d="M3930 3304 c0 -63 107 -128 158 -95 18 11 6 54 -24 86 -19 21 -32 25
-79 25 -44 0 -55 -3 -55 -16z"/>
<path d="M5099 3227 c-36 -28 -47 -74 -29 -122 9 -22 13 -24 31 -15 19 10 20
9 14 -9 -5 -16 0 -22 32 -30 50 -14 59 -14 99 5 30 14 83 79 72 89 -2 2 -24 9
-49 16 -42 11 -50 10 -88 -9 l-41 -22 6 25 c6 24 -12 85 -25 85 -3 0 -13 -6
-22 -13z"/>
<path d="M717 3170 c-39 -12 -55 -27 -79 -73 -23 -47 -15 -57 45 -57 52 0 91
22 111 64 21 45 20 66 -3 66 -11 0 -25 2 -33 4 -7 2 -26 0 -41 -4z"/>
<path d="M853 3130 c-17 -10 -37 -29 -43 -41 -11 -20 -9 -94 3 -106 3 -3 20 3
37 13 37 22 56 74 43 122 l-8 32 -32 -20z"/>
<path d="M944 3105 c-25 -60 -19 -102 21 -142 38 -38 54 -39 72 -2 28 53 8
130 -41 163 -34 22 -35 21 -52 -19z"/>
<path d="M57 3105 c-21 -7 -41 -16 -45 -20 -3 -3 11 -24 33 -45 32 -31 48 -39
78 -40 30 0 86 18 105 35 11 9 -24 48 -58 65 -46 23 -61 24 -113 5z"/>
<path d="M2096 3077 c-36 -34 -45 -67 -26 -97 14 -23 62 -1 81 38 18 34 13 82
-8 89 -6 2 -27 -11 -47 -30z"/>
<path d="M4638 3053 c-22 -6 -23 -17 -1 -53 20 -35 52 -50 103 -50 45 0 49 11
22 53 -34 51 -68 65 -124 50z"/>
<path d="M1930 3025 c0 -40 42 -75 89 -75 34 0 39 3 36 19 -10 54 -42 81 -94
81 -27 0 -31 -4 -31 -25z"/>
<path d="M4550 2961 c-15 -57 -3 -96 43 -136 51 -45 73 -45 85 -1 19 66 -7
125 -69 157 -21 10 -40 19 -43 19 -3 0 -10 -17 -16 -39z"/>
<path d="M145 2976 c-44 -20 -72 -56 -77 -100 l-4 -38 50 6 c40 4 57 12 78 36
l28 30 13 -32 c18 -43 44 -65 59 -50 5 5 12 30 15 54 4 38 1 49 -21 74 -25 28
-26 28 -41 10 -15 -19 -15 -19 -15 2 0 17 -6 22 -27 22 -16 -1 -41 -7 -58 -14z"/>
<path d="M4466 2938 c-30 -43 -14 -114 21 -92 24 15 37 55 29 88 -8 32 -30 34
-50 4z"/>
<path d="M5070 2941 l-35 -19 42 -41 c44 -45 73 -51 146 -30 l37 10 -17 30
c-23 38 -72 69 -109 69 -16 -1 -45 -9 -64 -19z"/>
<path d="M520 2864 c0 -52 3 -59 36 -91 32 -30 34 -33 13 -28 -26 6 -99 -19
-99 -34 0 -13 64 -51 86 -51 11 0 34 10 53 21 30 18 33 22 18 31 -9 5 -17 14
-17 19 0 6 5 7 10 4 24 -15 37 14 30 64 -7 56 -29 87 -77 107 -50 21 -53 19
-53 -42z"/>
<path d="M5615 2866 c-49 -22 -68 -51 -73 -111 -5 -61 2 -66 54 -40 52 25 72
55 76 113 3 58 -3 62 -57 38z"/>
<path d="M1074 2851 c-57 -26 -74 -54 -74 -123 0 -31 4 -59 9 -62 14 -9 95 39
108 65 14 26 18 139 6 139 -5 0 -27 -9 -49 -19z"/>
<path d="M890 2824 c-16 -46 -6 -95 25 -124 l24 -22 20 33 c26 43 26 75 1 117
-27 44 -55 42 -70 -4z"/>
<path d="M4990 2835 c0 -23 25 -78 41 -91 8 -6 29 -14 47 -17 31 -6 32 -5 32
27 0 50 -41 96 -86 96 -24 0 -34 -5 -34 -15z"/>
<path d="M5447 2843 c-4 -3 -7 -28 -7 -54 0 -42 4 -50 31 -70 31 -22 32 -22
45 -4 23 31 17 74 -15 106 -30 29 -42 34 -54 22z"/>
<path d="M4925 2763 c-32 -47 -33 -99 -2 -143 30 -45 41 -47 67 -11 35 50 37
93 6 146 -15 25 -31 45 -36 45 -5 0 -21 -17 -35 -37z"/>
<path d="M5615 2705 c-51 -28 -67 -46 -53 -62 45 -54 132 -56 197 -5 l24 19
-36 27 c-45 34 -93 42 -132 21z"/>
<path d="M1100 2672 c-41 -41 -38 -52 14 -52 36 0 48 5 66 27 23 29 19 38 -22
48 -22 6 -33 1 -58 -23z"/>
<path d="M5506 2633 c-6 -14 -5 -15 5 -6 7 7 10 15 7 18 -3 3 -9 -2 -12 -12z"/>
<path d="M3201 2627 c-25 -9 -41 -24 -58 -56 -28 -53 -21 -61 48 -61 38 0 53
6 79 30 29 27 32 28 27 9 -7 -25 17 -89 32 -89 15 0 51 50 51 72 0 10 -7 35
-15 55 -15 36 -15 36 -36 17 -21 -19 -22 -19 -15 2 5 18 2 22 -25 28 -40 8
-47 7 -88 -7z"/>
<path d="M5595 2463 c-16 -9 -35 -23 -42 -32 -16 -23 -25 -74 -16 -99 8 -21 9
-21 48 -3 55 24 69 45 69 99 1 53 -12 61 -59 35z"/>
<path d="M860 2251 c0 -59 28 -98 76 -107 27 -5 33 -3 39 16 13 42 -3 86 -43
114 -58 40 -72 36 -72 -23z"/>
<path d="M5562 2291 c-12 -7 -11 -14 2 -39 31 -60 92 -86 148 -64 17 7 17 10
-2 48 -12 23 -32 46 -46 53 -29 13 -83 14 -102 2z"/>
<path d="M5119 2237 c-30 -23 -41 -57 -34 -103 7 -48 8 -49 36 -34 16 9 19 7
16 -12 -2 -19 6 -25 40 -36 39 -13 47 -12 87 7 49 24 79 72 57 94 -14 14 -107
16 -133 3 -15 -7 -18 -3 -18 24 0 32 -15 70 -28 70 -4 0 -14 -6 -23 -13z"/>
<path d="M836 2105 c-20 -15 -56 -65 -56 -77 0 -12 68 -21 105 -14 26 5 42 17
62 47 14 22 23 42 19 46 -14 15 -111 14 -130 -2z"/>
</g>
</svg>
