<?xml version="1.0" standalone="no"?>
<!DOCTYPE svg PUBLIC "-//W3C//DTD SVG 20010904//EN"
 "http://www.w3.org/TR/2001/REC-SVG-20010904/DTD/svg10.dtd">
<svg version="1.0" xmlns="http://www.w3.org/2000/svg"
 width="512.000000pt" height="512.000000pt" viewBox="0 0 512.000000 512.000000"
 preserveAspectRatio="xMidYMid meet">

<g transform="translate(0.000000,512.000000) scale(0.100000,-0.100000)"
fill="#000000" stroke="none">
<path d="M2535 5110 c-139 -16 -206 -52 -160 -86 35 -26 88 -32 280 -33 537 0
977 -112 1320 -336 33 -21 111 -90 174 -153 103 -103 111 -109 86 -66 -53 91
-89 139 -172 225 -222 231 -549 381 -940 435 -134 18 -481 26 -588 14z"/>
<path d="M2493 4900 c-245 -13 -393 -45 -481 -104 -65 -44 -87 -85 -87 -167 0
-83 29 -132 103 -172 125 -68 279 -71 652 -11 194 30 257 36 455 41 186 4 248
2 323 -11 185 -32 338 -101 460 -206 l51 -44 -64 -58 c-76 -70 -114 -128 -161
-244 -43 -107 -81 -162 -148 -213 -97 -75 -195 -101 -307 -81 -35 6 -152 40
-259 75 -306 100 -409 122 -610 132 -576 27 -1001 -270 -1189 -832 -16 -50
-36 -120 -43 -157 l-12 -66 -59 64 c-100 110 -224 153 -386 134 -146 -17 -233
-66 -277 -156 -24 -48 -26 -63 -22 -132 10 -171 131 -300 312 -333 107 -20
203 1 401 86 6 3 26 -23 45 -56 98 -171 432 -395 658 -440 248 -50 379 -98
456 -168 92 -84 36 -176 -195 -319 -170 -105 -210 -157 -180 -235 27 -71 105
-105 348 -153 285 -55 410 -92 547 -161 193 -97 327 -219 464 -424 62 -93 129
-154 220 -202 185 -97 395 -89 430 16 24 76 -10 262 -70 382 -153 303 -471
531 -941 674 l-88 27 113 76 c252 168 370 306 440 518 31 91 32 102 32 265 1
151 -2 178 -22 245 -60 189 -164 335 -352 489 l-25 21 48 -20 c182 -75 421
-270 506 -413 83 -140 117 -282 108 -447 -10 -181 -54 -343 -133 -503 l-45
-89 35 29 c52 42 157 181 215 282 119 208 201 463 255 792 16 94 36 335 36
432 0 59 4 107 9 107 5 0 29 -11 54 -25 140 -79 510 -151 675 -133 84 9 181
42 240 81 68 46 85 108 85 317 1 307 -56 487 -201 642 -50 54 -142 123 -207
156 -122 61 -316 102 -486 102 l-106 0 -29 41 c-41 60 -165 172 -258 234 -108
72 -284 155 -421 200 -301 99 -567 132 -912 115z m2409 -1148 c34 -20 68 -81
68 -123 0 -141 -188 -204 -268 -91 -95 133 56 296 200 214z"/>
<path d="M0 4160 l0 -110 958 1 c928 0 955 1 897 18 -116 34 -188 87 -220 164
l-15 37 -810 0 -810 0 0 -110z"/>
<path d="M0 3735 l0 -105 630 0 630 0 14 33 c30 74 111 140 196 163 37 10 -95
13 -712 13 l-758 1 0 -105z"/>
</g>
</svg>
