<?xml version="1.0" standalone="no"?>
<!DOCTYPE svg PUBLIC "-//W3C//DTD SVG 20010904//EN"
 "http://www.w3.org/TR/2001/REC-SVG-20010904/DTD/svg10.dtd">
<svg version="1.0" xmlns="http://www.w3.org/2000/svg"
 width="600.000000pt" height="600.000000pt" viewBox="0 0 600.000000 600.000000"
 preserveAspectRatio="xMidYMid meet">

<g transform="translate(0.000000,600.000000) scale(0.100000,-0.100000)"
fill="#FFFF00" stroke="none">
<path d="M2921 5523 c-5 -10 -167 -346 -361 -748 -193 -401 -352 -731 -353
-732 -2 -2 -264 -31 -972 -107 -176 -19 -395 -43 -487 -53 l-168 -17 -34 -103
-35 -103 597 -572 c328 -314 598 -576 600 -582 1 -6 -72 -364 -163 -795 -91
-432 -165 -790 -165 -795 1 -6 39 -39 86 -74 l85 -63 727 392 c400 215 732
392 737 392 6 0 237 -131 515 -290 278 -160 595 -342 704 -405 l200 -115 85
60 c48 33 88 61 89 63 2 1 -62 367 -143 813 -81 446 -145 818 -142 825 3 8
275 258 605 557 l599 542 -31 101 c-29 93 -34 101 -61 108 -17 4 -385 55 -820
114 -553 75 -793 111 -801 120 -6 8 -157 339 -334 736 -178 398 -328 729 -333
736 -6 8 -42 12 -113 12 -88 0 -105 -3 -113 -17z m473 -1128 c279 -622 235
-568 486 -602 820 -110 1285 -174 1287 -177 2 -2 -237 -220 -531 -485 l-533
-483 -18 -57 -17 -57 130 -719 c72 -396 130 -721 129 -721 -1 -1 -150 84 -332
188 -968 558 -913 528 -977 528 -56 0 -68 -6 -699 -345 -353 -190 -644 -343
-646 -341 -3 3 61 320 142 705 l147 700 -18 55 c-18 53 -41 76 -544 557 -289
276 -526 505 -528 508 -1 4 114 19 255 34 142 15 464 49 716 77 l458 49 47 35
c46 33 54 48 296 553 138 285 281 582 319 661 l70 143 66 -148 c37 -81 170
-377 295 -658z"/>
</g>
</svg>
