<?xml version="1.0" standalone="no"?>
<!DOCTYPE svg PUBLIC "-//W3C//DTD SVG 20010904//EN"
 "http://www.w3.org/TR/2001/REC-SVG-20010904/DTD/svg10.dtd">
<svg version="1.0" xmlns="http://www.w3.org/2000/svg"
 width="980.000000pt" height="656.000000pt" viewBox="0 0 980.000000 656.000000"
 preserveAspectRatio="xMidYMid meet">

<g transform="translate(0.000000,656.000000) scale(0.100000,-0.100000)"
fill="#1B4F72" stroke="none">
<path d="M8122 6531 c-263 -65 -557 -329 -735 -661 -61 -114 -122 -264 -207
-516 -195 -572 -264 -709 -497 -989 -193 -233 -476 -501 -743 -706 -1083 -832
-2723 -1397 -4595 -1584 -186 -18 -252 -29 -355 -57 -301 -82 -643 -296 -826
-518 -55 -65 -168 -239 -161 -246 2 -2 45 6 97 17 124 27 420 36 583 20 153
-16 320 -51 451 -95 105 -35 239 -97 251 -116 11 -18 -31 -95 -81 -145 -27
-28 -104 -96 -170 -152 -192 -161 -263 -252 -284 -364 -21 -111 42 -249 134
-296 79 -40 176 -70 288 -89 197 -33 556 -3 737 61 104 36 308 217 396 350 29
44 88 150 130 235 43 85 78 156 79 156 0 1 55 -9 121 -21 790 -154 1650 -170
2384 -44 130 22 351 70 426 93 27 8 49 14 50 13 26 -106 125 -319 202 -436 77
-116 231 -269 308 -306 170 -80 326 -115 552 -122 249 -8 458 24 663 103 63
25 80 37 112 79 48 63 62 125 44 193 -18 71 -60 136 -192 297 -308 376 -361
534 -336 996 23 422 84 740 198 1046 166 444 409 806 817 1218 l198 200 26
-35 c64 -85 163 -169 245 -209 128 -63 218 -83 378 -84 116 0 151 3 245 27
253 64 459 204 565 387 61 103 118 238 148 349 23 85 25 114 26 280 1 205 -12
315 -55 492 -70 288 -200 531 -390 732 -226 239 -514 399 -813 451 -121 21
-320 19 -414 -4z m958 -933 c84 -26 149 -94 176 -184 26 -87 11 -179 -41 -254
-74 -107 -237 -145 -360 -86 -99 49 -155 141 -155 256 0 204 179 330 380 268z"/>
<path d="M3275 6139 c-381 -38 -801 -134 -1107 -254 -938 -368 -1502 -997
-1622 -1806 -43 -291 4 -638 109 -814 20 -33 32 -61 26 -63 -30 -10 -132 -85
-174 -128 -74 -76 -102 -142 -102 -239 0 -68 5 -90 31 -145 42 -89 82 -132
152 -163 114 -52 193 -62 462 -62 312 1 558 29 990 115 585 116 1440 369 2012
596 616 244 1209 557 1665 879 282 199 396 369 397 595 0 105 -20 177 -74 258
-79 117 -184 172 -347 180 l-101 5 -51 83 c-155 253 -379 478 -634 636 -176
110 -412 208 -629 264 -209 52 -332 66 -633 69 -154 2 -320 -1 -370 -6z"/>
</g>
</svg>
